<svg xmlns="http://www.w3.org/2000/svg" xmlns:xlink="http://www.w3.org/1999/xlink" width="1080" zoomAndPan="magnify" viewBox="0 0 810 809.999993" height="1080" preserveAspectRatio="xMidYMid meet" version="1.0"><defs><clipPath id="a4e7af95c1"><path d="M 714 24.875 L 727 24.875 L 727 42 L 714 42 Z M 714 24.875 " clip-rule="nonzero"/></clipPath></defs><path fill="#3f3d56" d="M 617.714844 368.53125 C 617.707031 372.589844 617.574219 376.640625 617.316406 380.6875 C 617.054688 384.734375 616.675781 388.773438 616.167969 392.796875 C 615.660156 396.820312 615.027344 400.824219 614.273438 404.808594 C 613.519531 408.792969 612.644531 412.753906 611.644531 416.683594 C 610.644531 420.613281 609.527344 424.511719 608.289062 428.375 C 607.046875 432.234375 605.691406 436.054688 604.214844 439.832031 C 602.742188 443.613281 601.148438 447.339844 599.445312 451.023438 C 597.738281 454.703125 595.921875 458.324219 593.992188 461.894531 C 592.0625 465.460938 590.027344 468.964844 587.882812 472.410156 C 585.734375 475.851562 583.488281 479.222656 581.132812 482.527344 C 578.78125 485.832031 576.328125 489.058594 573.773438 492.210938 C 571.21875 495.363281 568.574219 498.433594 565.832031 501.421875 C 563.085938 504.410156 560.253906 507.3125 557.335938 510.125 C 554.414062 512.9375 551.40625 515.660156 548.316406 518.289062 C 545.226562 520.917969 542.0625 523.445312 538.816406 525.878906 C 535.570312 528.3125 532.25 530.644531 528.863281 532.871094 C 525.472656 535.101562 522.019531 537.222656 518.496094 539.234375 C 514.976562 541.25 511.398438 543.15625 507.757812 544.949219 C 504.121094 546.742188 500.429688 548.421875 496.6875 549.988281 C 492.949219 551.554688 489.160156 553.003906 485.328125 554.339844 C 481.5 555.671875 477.628906 556.882812 473.722656 557.976562 C 469.816406 559.070312 465.882812 560.042969 461.914062 560.894531 C 457.949219 561.746094 453.960938 562.472656 449.949219 563.078125 C 445.9375 563.683594 441.910156 564.164062 437.871094 564.519531 C 433.832031 564.875 429.78125 565.109375 425.726562 565.214844 C 421.671875 565.320312 417.617188 565.300781 413.5625 565.160156 C 409.507812 565.015625 405.464844 564.746094 401.425781 564.351562 C 397.390625 563.960938 393.367188 563.441406 389.363281 562.800781 C 385.355469 562.160156 381.375 561.394531 377.417969 560.507812 C 373.457031 559.621094 369.53125 558.613281 365.636719 557.480469 C 361.738281 556.351562 357.882812 555.105469 354.0625 553.734375 C 350.246094 552.367188 346.472656 550.882812 342.742188 549.285156 C 339.015625 547.683594 335.34375 545.96875 331.722656 544.140625 C 328.101562 542.316406 324.539062 540.378906 321.035156 538.332031 C 317.535156 536.28125 314.097656 534.128906 310.730469 531.871094 C 307.359375 529.613281 304.066406 527.25 300.839844 524.789062 C 297.617188 522.324219 294.472656 519.765625 291.410156 517.109375 C 288.34375 514.453125 285.363281 511.703125 282.46875 508.863281 C 279.570312 506.023438 276.765625 503.097656 274.050781 500.082031 C 271.335938 497.070312 268.71875 493.976562 266.195312 490.800781 C 263.667969 487.625 261.246094 484.375 258.921875 481.050781 C 256.601562 477.722656 254.382812 474.332031 252.269531 470.871094 C 250.152344 467.40625 248.148438 463.882812 246.253906 460.296875 C 244.355469 456.714844 242.574219 453.074219 240.902344 449.375 C 239.230469 445.679688 237.675781 441.9375 236.234375 438.144531 C 234.792969 434.355469 233.472656 430.523438 232.265625 426.648438 C 231.0625 422.777344 229.980469 418.867188 229.015625 414.929688 C 228.054688 410.988281 227.214844 407.023438 226.496094 403.03125 C 225.777344 399.039062 225.183594 395.027344 224.714844 391 C 224.246094 386.972656 223.898438 382.933594 223.675781 378.882812 C 223.457031 374.832031 223.359375 370.78125 223.390625 366.722656 C 223.417969 362.667969 223.574219 358.617188 223.851562 354.570312 C 224.132812 350.523438 224.535156 346.492188 225.066406 342.46875 C 225.59375 338.449219 226.246094 334.445312 227.019531 330.464844 C 227.796875 326.484375 228.691406 322.53125 229.710938 318.605469 C 230.730469 314.679688 231.871094 310.789062 233.128906 306.933594 C 234.390625 303.078125 235.765625 299.265625 237.261719 295.496094 C 238.757812 291.722656 240.367188 288.003906 242.089844 284.332031 C 243.816406 280.660156 245.652344 277.046875 247.601562 273.488281 C 249.546875 269.929688 251.605469 266.4375 253.765625 263.007812 C 255.929688 259.574219 258.199219 256.214844 260.570312 252.921875 C 262.941406 249.632812 265.410156 246.417969 267.980469 243.277344 C 270.546875 240.140625 273.210938 237.085938 275.96875 234.109375 C 278.730469 231.136719 281.574219 228.25 284.511719 225.449219 C 287.449219 222.652344 290.46875 219.949219 293.570312 217.335938 C 296.675781 214.722656 299.855469 212.210938 303.113281 209.792969 C 306.371094 207.378906 309.703125 205.066406 313.101562 202.855469 C 316.503906 200.644531 319.96875 198.539062 323.5 196.542969 C 327.03125 194.546875 330.621094 192.664062 334.269531 190.886719 C 337.917969 189.113281 341.617188 187.453125 345.367188 185.90625 C 349.117188 184.359375 352.910156 182.929688 356.746094 181.617188 C 360.585938 180.304688 364.460938 179.109375 368.371094 178.039062 C 372.285156 176.964844 376.226562 176.011719 380.195312 175.183594 C 384.167969 174.351562 388.160156 173.644531 392.175781 173.0625 C 396.1875 172.476562 400.214844 172.019531 404.257812 171.683594 C 408.300781 171.347656 412.351562 171.136719 416.40625 171.054688 C 420.460938 170.96875 424.515625 171.007812 428.570312 171.171875 C 432.621094 171.335938 436.667969 171.628906 440.703125 172.042969 C 444.738281 172.457031 448.757812 172.996094 452.757812 173.65625 C 456.761719 174.320312 460.738281 175.105469 464.691406 176.011719 C 468.644531 176.921875 472.566406 177.949219 476.457031 179.101562 C 480.347656 180.25 484.199219 181.519531 488.007812 182.90625 C 491.820312 184.296875 495.585938 185.800781 499.304688 187.417969 C 503.023438 189.039062 506.6875 190.773438 510.300781 192.617188 C 513.914062 194.464844 517.464844 196.421875 520.957031 198.488281 C 524.445312 200.550781 527.871094 202.722656 531.226562 205 C 534.585938 207.277344 537.867188 209.65625 541.078125 212.132812 C 544.289062 214.613281 547.417969 217.191406 550.472656 219.863281 C 553.523438 222.535156 556.488281 225.300781 559.367188 228.15625 C 562.25 231.011719 565.039062 233.953125 567.738281 236.980469 C 570.4375 240.007812 573.039062 243.117188 575.546875 246.304688 C 578.054688 249.492188 580.460938 252.753906 582.765625 256.09375 C 585.074219 259.429688 587.273438 262.835938 589.367188 266.308594 C 591.464844 269.78125 593.449219 273.3125 595.328125 276.910156 C 597.207031 280.503906 598.96875 284.15625 600.621094 287.859375 C 602.273438 291.5625 603.808594 295.316406 605.230469 299.113281 C 605.660156 300.273438 606.078125 301.429688 606.488281 302.597656 L 606.488281 302.609375 C 608.308594 307.746094 609.910156 312.980469 611.296875 318.308594 C 615.589844 334.777344 617.726562 351.515625 617.714844 368.53125 Z M 617.714844 368.53125 " fill-opacity="1" fill-rule="nonzero"/><path fill="#6c63ff" d="M 397.503906 234.632812 C 395.28125 233.429688 392.996094 232.355469 390.652344 231.414062 C 388.308594 230.472656 385.917969 229.667969 383.480469 228.996094 C 381.042969 228.328125 378.578125 227.796875 376.078125 227.410156 C 373.582031 227.019531 371.070312 226.773438 368.546875 226.671875 C 366.023438 226.566406 363.5 226.609375 360.980469 226.792969 C 358.457031 226.976562 355.957031 227.300781 353.472656 227.769531 C 350.992188 228.238281 348.542969 228.847656 346.128906 229.59375 C 343.714844 230.339844 341.351562 231.222656 339.035156 232.238281 C 330.863281 235.796875 322.253906 242.175781 319.527344 253.699219 C 330.554688 247.191406 344.832031 257.476562 347.671875 273.972656 L 347.007812 274.152344 C 345.511719 285.578125 348.855469 298.019531 355.335938 305.105469 C 355.578125 303.507812 355.988281 301.953125 356.578125 300.449219 C 357.164062 298.941406 357.910156 297.519531 358.8125 296.179688 C 359.714844 294.835938 360.757812 293.613281 361.933594 292.503906 C 363.109375 291.394531 364.394531 290.429688 365.785156 289.609375 C 370.546875 286.480469 375.8125 284.207031 379.445312 278.828125 C 383.753906 272.453125 384.847656 263.136719 386.558594 254.636719 C 388.269531 246.136719 391.515625 237 397.503906 234.632812 Z M 397.503906 234.632812 " fill-opacity="1" fill-rule="nonzero"/><path fill="#6c63ff" d="M 335.765625 331.859375 C 332.710938 336.449219 328.628906 339.324219 324.96875 342.910156 C 322.855469 344.832031 321.125 347.050781 319.777344 349.570312 C 318.429688 352.089844 317.542969 354.761719 317.117188 357.585938 C 316.65625 361.574219 317.371094 365.632812 317.273438 369.667969 C 317.171875 373.703125 315.828125 378.246094 313.082031 379.25 C 308.746094 380.816406 305.441406 372.765625 300.984375 372.203125 C 297.445312 371.761719 294.257812 377.332031 295.285156 382.160156 C 296.308594 386.992188 301.128906 389.128906 303.894531 385.976562 C 306.398438 390.175781 304.632812 397.796875 300.875 399.085938 C 300.476562 401.730469 300.082031 404.367188 299.695312 407.011719 C 290.1875 400.363281 280.582031 393.605469 272.5 383.871094 C 270.265625 381.199219 268.242188 378.382812 266.425781 375.410156 C 264.609375 372.441406 263.023438 369.351562 261.667969 366.144531 C 260.308594 362.941406 259.199219 359.652344 258.328125 356.28125 C 257.460938 352.910156 256.847656 349.492188 256.488281 346.027344 C 255.441406 334.839844 256.996094 322.035156 251.859375 313.425781 C 247.746094 306.535156 240.6875 305.011719 234.335938 305.441406 C 233.175781 305.519531 232.007812 305.652344 230.851562 305.796875 C 234.605469 294.523438 239.34375 283.679688 245.066406 273.269531 C 246.363281 272.710938 247.550781 271.972656 248.625 271.054688 C 254.535156 266.035156 257.160156 255.882812 261.957031 248.859375 C 262.265625 248.40625 262.585938 247.964844 262.917969 247.535156 C 267.824219 241.128906 274.398438 237.832031 280.75 234.765625 C 294.808594 227.941406 309.277344 221.027344 324.121094 221.976562 L 319.894531 222.386719 C 314.96875 236.191406 310.035156 249.992188 305.097656 263.796875 C 304.347656 265.914062 303.589844 268.035156 302.824219 270.160156 C 300.023438 278.011719 297.136719 286.367188 297.566406 295.15625 C 297.820312 300.359375 299.628906 305.917969 303.070312 307.703125 C 306.277344 309.355469 309.785156 307.328125 312.882812 305.320312 C 314.195312 304.484375 315.496094 303.644531 316.808594 302.796875 C 321.515625 299.765625 326.734375 296.65625 331.707031 298.683594 C 336.261719 300.535156 339.625 306.722656 340.265625 313.390625 C 340.558594 316.636719 340.320312 319.835938 339.546875 323 C 338.777344 326.164062 337.515625 329.117188 335.765625 331.859375 Z M 335.765625 331.859375 " fill-opacity="1" fill-rule="nonzero"/><path fill="#6c63ff" d="M 363.769531 426.105469 C 350.019531 417.640625 336.265625 409.175781 322.511719 400.707031 L 322.746094 400.105469 C 314.195312 403.363281 310.644531 418.558594 312.058594 430.988281 C 313.472656 443.414062 318.265625 454.523438 320.683594 466.632812 C 321.496094 470.757812 322.03125 474.917969 322.289062 479.113281 C 322.546875 483.308594 322.527344 487.503906 322.222656 491.699219 C 321.921875 495.890625 321.34375 500.042969 320.488281 504.160156 C 319.636719 508.277344 318.511719 512.316406 317.117188 516.28125 C 335.246094 495.945312 351.167969 474.003906 364.886719 450.464844 C 366.808594 447.488281 368.25 444.296875 369.207031 440.886719 C 369.714844 439.078125 369.878906 437.242188 369.703125 435.371094 C 369.53125 433.503906 369.027344 431.730469 368.199219 430.046875 C 367.054688 428.359375 365.578125 427.046875 363.769531 426.105469 Z M 363.769531 426.105469 " fill-opacity="1" fill-rule="nonzero"/><path fill="#6c63ff" d="M 309.496094 272.082031 C 308.6875 273.8125 308.222656 275.636719 308.101562 277.542969 C 307.984375 279.453125 308.214844 281.316406 308.796875 283.136719 C 309.476562 284.605469 310.410156 285.886719 311.59375 286.988281 C 312.78125 288.085938 314.132812 288.917969 315.644531 289.480469 L 323.246094 293.246094 C 325.773438 294.5 328.496094 295.765625 331.074219 294.734375 C 334.183594 293.492188 336.339844 288.617188 335.78125 284.09375 C 335.1875 279.28125 332.152344 275.972656 329.347656 273.152344 C 325.417969 269.207031 321.492188 265.261719 317.566406 261.316406 L 315.351562 264.023438 C 312.941406 266.375 310.988281 269.0625 309.496094 272.082031 Z M 309.496094 272.082031 " fill-opacity="1" fill-rule="nonzero"/><path fill="#6c63ff" d="M 576.976562 323.535156 C 580.398438 324.339844 583.816406 325.144531 587.234375 325.949219 C 586.636719 337.496094 580.914062 348.179688 573.242188 352.050781 C 570.042969 353.660156 566.480469 354.253906 563.832031 357.265625 C 561.441406 360 560.226562 364.253906 559.113281 368.324219 C 557.164062 375.425781 555.210938 382.523438 553.257812 389.625 C 551.164062 397.277344 548.472656 405.777344 543.023438 408.535156 C 538.347656 410.90625 533 408.003906 529.40625 403.144531 C 525.8125 398.28125 523.617188 391.742188 521.488281 385.371094 C 521.621094 392.316406 518.390625 399.128906 513.8125 401.542969 C 509.226562 403.957031 503.644531 401.777344 500.582031 396.382812 C 498.375 392.515625 497.460938 387.410156 495.296875 383.484375 C 493.136719 379.558594 488.605469 377.308594 486.246094 380.992188 C 484.691406 383.441406 484.886719 387.1875 484.117188 390.296875 C 483.921875 391.332031 483.574219 392.308594 483.078125 393.230469 C 482.578125 394.15625 481.949219 394.980469 481.191406 395.710938 C 480.433594 396.4375 479.585938 397.035156 478.640625 397.496094 C 477.699219 397.960938 476.707031 398.269531 475.667969 398.425781 C 473.738281 398.378906 471.894531 397.957031 470.136719 397.152344 C 468.382812 396.351562 466.855469 395.234375 465.558594 393.804688 C 462.179688 390.351562 459.421875 386.460938 457.273438 382.132812 C 455.128906 377.808594 453.703125 373.253906 452.996094 368.476562 C 452.027344 363.832031 452.144531 359.21875 453.351562 354.628906 C 454.707031 350.339844 457.980469 347.03125 461.234375 347.847656 C 463.375 343.328125 459.152344 337.328125 455.347656 337.859375 C 451.53125 338.386719 448.542969 342.480469 445.410156 345.621094 C 442.289062 348.761719 437.921875 351.046875 434.78125 347.925781 C 434.796875 348.207031 434.789062 348.488281 434.75 348.769531 C 434.710938 349.050781 434.644531 349.324219 434.554688 349.59375 C 434.460938 349.859375 434.34375 350.117188 434.203125 350.359375 C 434.058594 350.605469 433.894531 350.835938 433.707031 351.046875 C 433.519531 351.257812 433.3125 351.449219 433.085938 351.621094 C 432.863281 351.792969 432.621094 351.941406 432.367188 352.066406 C 432.113281 352.1875 431.847656 352.289062 431.574219 352.359375 C 431.300781 352.433594 431.023438 352.476562 430.742188 352.492188 C 430.628906 352.5 430.515625 352.503906 430.402344 352.5 C 428.289062 351.894531 426.390625 350.886719 424.699219 349.480469 C 417.5 344.992188 408.359375 347.96875 403.242188 356.460938 C 406.441406 342.855469 411.125 327.242188 420.953125 324.042969 C 424.964844 322.730469 429.34375 323.8125 433.136719 321.539062 C 439.851562 317.515625 441.210938 302.3125 435.410156 296.039062 C 436.148438 301.96875 436.003906 308.894531 432.871094 312.953125 C 429.742188 317.007812 423.167969 314.363281 423.566406 308.363281 C 423.519531 308.785156 423.414062 309.191406 423.238281 309.578125 C 423.066406 309.964844 422.839844 310.316406 422.554688 310.632812 C 422.269531 310.949219 421.945312 311.210938 421.578125 311.421875 C 421.210938 311.636719 420.820312 311.785156 420.402344 311.875 C 419.988281 311.960938 419.570312 311.984375 419.148438 311.9375 C 418.726562 311.894531 418.320312 311.785156 417.933594 311.613281 C 417.546875 311.441406 417.195312 311.214844 416.878906 310.929688 C 416.566406 310.644531 416.300781 310.320312 416.089844 309.953125 C 414.003906 306.777344 414.179688 301.585938 415.660156 297.792969 C 417.195312 294.324219 419.339844 291.277344 422.085938 288.660156 C 427.324219 283.050781 432.640625 277.371094 438.707031 273.84375 C 444.78125 270.316406 451.796875 269.125 457.882812 272.628906 C 461.09375 274.484375 463.914062 277.570312 467.191406 279.203125 C 467.574219 279.441406 467.980469 279.640625 468.402344 279.796875 C 468.828125 279.957031 469.261719 280.074219 469.710938 280.148438 C 470.15625 280.21875 470.605469 280.25 471.058594 280.234375 C 471.511719 280.21875 471.957031 280.160156 472.398438 280.054688 C 472.839844 279.953125 473.265625 279.808594 473.679688 279.621094 C 474.089844 279.433594 474.480469 279.207031 474.847656 278.945312 C 475.21875 278.679688 475.554688 278.382812 475.863281 278.050781 C 476.175781 277.71875 476.449219 277.363281 476.6875 276.976562 C 476.722656 276.917969 476.757812 276.859375 476.792969 276.796875 C 479.230469 272.519531 478.085938 266.167969 478.988281 260.820312 C 480.609375 251.371094 490.0625 246.949219 495.296875 253.191406 C 491.382812 252.1875 487.335938 256.820312 486.851562 262.429688 C 486.355469 268.042969 489.191406 273.710938 492.984375 275.410156 C 499.355469 278.230469 505.597656 271.128906 510.417969 264.558594 C 515.445312 257.679688 520.480469 250.800781 525.523438 243.929688 C 526.332031 242.757812 527.230469 241.664062 528.226562 240.644531 C 528.617188 240.261719 529.042969 239.921875 529.496094 239.621094 C 529.953125 239.316406 530.433594 239.0625 530.9375 238.851562 C 531.441406 238.640625 531.960938 238.476562 532.496094 238.363281 C 533.03125 238.25 533.570312 238.191406 534.117188 238.179688 C 534.664062 238.167969 535.207031 238.207031 535.746094 238.296875 C 536.285156 238.390625 536.808594 238.53125 537.320312 238.722656 C 537.832031 238.910156 538.324219 239.148438 538.792969 239.429688 C 539.257812 239.710938 539.695312 240.035156 540.101562 240.402344 C 545.199219 244.558594 547.589844 253.082031 551.769531 258.945312 C 557.835938 267.46875 566.910156 269.542969 575.359375 271.195312 C 581.652344 272.421875 587.953125 273.652344 594.257812 274.890625 C 598.464844 282.714844 602.125 290.789062 605.230469 299.113281 C 599.449219 301.75 594.15625 305.144531 589.351562 309.296875 C 584.546875 313.453125 580.421875 318.199219 576.976562 323.535156 Z M 576.976562 323.535156 " fill-opacity="1" fill-rule="nonzero"/><path fill="#6c63ff" d="M 597.335938 456.199219 C 592.601562 465.808594 587.125 474.96875 580.902344 483.6875 C 576.933594 481.988281 572.667969 485.019531 568.949219 487.867188 C 565.070312 490.84375 560.402344 493.742188 556.421875 491.03125 C 552.355469 488.25 551.042969 480.476562 552.332031 474.316406 C 553.828125 468.574219 556.375 463.339844 559.964844 458.613281 C 563.269531 453.675781 566.8125 448.546875 571.410156 446.628906 C 576.019531 444.710938 581.941406 447.421875 583.285156 453.972656 L 586.550781 453.863281 C 584.71875 451.347656 585.679688 446.144531 588.136719 445.230469 C 590.972656 444.160156 593.429688 448.050781 595.109375 451.492188 C 595.859375 453.046875 596.617188 454.613281 597.335938 456.199219 Z M 597.335938 456.199219 " fill-opacity="1" fill-rule="nonzero"/><path fill="#6c63ff" d="M 472.320312 409.628906 C 465.304688 410.066406 459.75 401.433594 456.054688 392.9375 C 452.363281 384.441406 448.992188 374.726562 442.664062 370.402344 C 439.046875 367.929688 434.921875 367.589844 430.996094 366.394531 C 429.886719 366.113281 428.820312 365.703125 427.804688 365.171875 C 426.789062 364.636719 425.851562 363.988281 424.992188 363.230469 C 424.128906 362.472656 423.371094 361.625 422.710938 360.683594 C 422.050781 359.746094 421.511719 358.742188 421.09375 357.671875 L 416.640625 355.875 C 410.378906 359.007812 404.746094 363.023438 399.742188 367.921875 C 396.902344 370.9375 394.621094 374.332031 392.898438 378.097656 C 391.175781 381.867188 390.101562 385.808594 389.675781 389.929688 C 388.824219 398.839844 391.964844 408.769531 397.832031 412.117188 C 402.464844 414.761719 407.863281 413.09375 412.558594 415.515625 C 418.421875 418.539062 421.90625 427.324219 423.222656 435.996094 C 424.542969 444.667969 424.207031 453.683594 425.152344 462.457031 C 426.09375 471.226562 428.695312 480.355469 434.074219 484.851562 C 440.804688 490.476562 450.683594 485.800781 453.703125 475.5625 C 455.183594 470.539062 455.132812 464.871094 456.242188 459.65625 C 458.195312 450.472656 463.460938 443.660156 467.636719 436.128906 C 471.8125 428.597656 475.101562 418.367188 472.320312 409.628906 Z M 472.320312 409.628906 " fill-opacity="1" fill-rule="nonzero"/><path fill="#6c63ff" d="M 402.992188 319.402344 C 403.648438 320.003906 404.257812 320.652344 404.820312 321.339844 C 405.113281 321.84375 405.328125 322.375 405.476562 322.933594 C 405.621094 323.496094 405.691406 324.066406 405.679688 324.644531 C 405.671875 325.226562 405.582031 325.792969 405.417969 326.347656 C 405.253906 326.90625 405.015625 327.429688 404.707031 327.917969 C 405.5625 327.871094 406.371094 327.652344 407.132812 327.265625 C 407.898438 326.878906 408.550781 326.351562 409.09375 325.691406 C 410.375 324.230469 411.496094 322.652344 412.453125 320.957031 C 412.90625 320.371094 413.222656 319.71875 413.394531 319 C 413.566406 318.277344 413.585938 317.554688 413.445312 316.828125 C 413.113281 315.882812 412.328125 315.476562 411.78125 314.765625 C 411.011719 313.367188 410.5 311.878906 410.242188 310.300781 C 410.089844 309.570312 409.839844 308.871094 409.492188 308.207031 C 409.144531 307.542969 408.714844 306.9375 408.199219 306.394531 C 407.683594 305.851562 407.105469 305.390625 406.460938 305.007812 C 405.816406 304.628906 405.128906 304.339844 404.40625 304.152344 L 404.757812 304.21875 C 404.457031 304.394531 404.191406 304.613281 403.960938 304.875 C 403.730469 305.136719 403.546875 305.425781 403.40625 305.742188 C 403.265625 306.0625 403.179688 306.394531 403.140625 306.742188 C 403.105469 307.085938 403.125 307.429688 403.195312 307.769531 C 403.40625 309.144531 404.292969 310.289062 404.203125 311.691406 C 404.078125 313.710938 402.0625 314.65625 401.9375 316.675781 C 401.914062 317.726562 402.269531 318.636719 402.992188 319.402344 Z M 402.992188 319.402344 " fill-opacity="1" fill-rule="nonzero"/><path fill="#6c63ff" d="M 390.972656 285.109375 L 391.003906 285.105469 C 391.21875 284.90625 391.417969 284.695312 391.601562 284.464844 Z M 390.972656 285.109375 " fill-opacity="1" fill-rule="nonzero"/><path fill="#6c63ff" d="M 393.078125 294.582031 C 393.5 294.210938 393.863281 293.792969 394.167969 293.324219 C 394.472656 292.855469 394.710938 292.351562 394.878906 291.816406 C 395.046875 291.28125 395.140625 290.734375 395.15625 290.175781 C 395.175781 289.613281 395.117188 289.0625 394.980469 288.519531 C 394.472656 286.222656 392.667969 284.679688 391.003906 285.105469 C 390.515625 285.601562 389.933594 285.949219 389.261719 286.144531 C 388.59375 286.34375 387.917969 286.367188 387.234375 286.214844 C 386.207031 285.949219 385.078125 285.265625 384.183594 286.042969 C 383.664062 286.628906 383.320312 287.304688 383.144531 288.070312 C 382.816406 289.085938 382.484375 290.097656 382.15625 291.109375 C 381.996094 291.484375 381.957031 291.867188 382.039062 292.261719 C 382.175781 292.601562 382.425781 292.800781 382.785156 292.859375 L 388.730469 294.609375 C 389.421875 294.929688 390.144531 295.085938 390.90625 295.082031 C 391.667969 295.074219 392.390625 294.910156 393.078125 294.582031 Z M 393.078125 294.582031 " fill-opacity="1" fill-rule="nonzero"/><path fill="#6c63ff" d="M 542.65625 425.347656 C 541.738281 423.847656 540.824219 422.347656 539.90625 420.847656 C 539 419.097656 537.792969 417.582031 536.285156 416.304688 C 535.960938 416.03125 535.59375 415.832031 535.1875 415.703125 C 534.78125 415.574219 534.367188 415.53125 533.945312 415.566406 C 533.519531 415.605469 533.121094 415.722656 532.742188 415.917969 C 532.367188 416.117188 532.039062 416.378906 531.765625 416.703125 L 531.71875 416.761719 L 531.832031 417.617188 C 534.332031 420.296875 535.941406 423.4375 536.65625 427.03125 C 536.863281 428.566406 536.792969 430.152344 536.976562 431.691406 C 536.996094 432.410156 537.152344 433.097656 537.445312 433.757812 C 537.738281 434.414062 538.148438 434.992188 538.671875 435.488281 C 540.113281 436.449219 541.808594 435.03125 542.835938 433.296875 C 543.777344 431.832031 544.167969 430.234375 544.003906 428.496094 C 543.773438 427.355469 543.324219 426.304688 542.65625 425.347656 Z M 542.65625 425.347656 " fill-opacity="1" fill-rule="nonzero"/><path fill="#6c63ff" d="M 557.023438 427.296875 C 557.199219 425.878906 557.085938 424.484375 556.6875 423.113281 C 556.621094 421.234375 557.085938 419.496094 558.085938 417.902344 C 559.0625 416.425781 559.789062 414.832031 560.265625 413.125 C 560.46875 412.335938 560.433594 411.554688 560.160156 410.785156 C 559.855469 410.105469 559.121094 409.796875 558.703125 410.335938 L 559.601562 410.914062 C 558.371094 410.695312 557.152344 410.753906 555.945312 411.09375 C 555.257812 411.355469 554.667969 411.765625 554.175781 412.316406 C 553.6875 412.867188 553.351562 413.5 553.171875 414.21875 C 553.023438 415.320312 552.78125 416.398438 552.445312 417.460938 C 551.90625 418.5625 550.867188 418.929688 550.214844 419.902344 C 549.761719 420.773438 549.542969 421.703125 549.558594 422.6875 C 549.574219 423.671875 549.824219 424.589844 550.304688 425.449219 C 550.714844 426.140625 551.238281 426.734375 551.867188 427.230469 C 552.5 427.726562 553.199219 428.09375 553.96875 428.328125 C 555.070312 428.726562 556.519531 428.746094 557.023438 427.296875 Z M 557.023438 427.296875 " fill-opacity="1" fill-rule="nonzero"/><path fill="#6c63ff" d="M 582.609375 435.015625 C 583.007812 436.058594 583.535156 437.027344 584.195312 437.925781 C 585.417969 439.160156 587.082031 438.402344 588.570312 438.101562 C 589.242188 437.996094 589.921875 437.980469 590.597656 438.058594 C 591.277344 438.132812 591.933594 438.300781 592.566406 438.554688 C 593.199219 438.808594 593.789062 439.140625 594.332031 439.554688 C 594.875 439.96875 595.351562 440.445312 595.765625 440.988281 C 595.476562 439.550781 595.023438 438.167969 594.40625 436.839844 C 593.785156 435.511719 593.015625 434.277344 592.097656 433.132812 C 591.183594 431.992188 590.144531 430.972656 588.984375 430.078125 C 587.820312 429.183594 586.570312 428.441406 585.230469 427.84375 C 581.71875 426.632812 578.109375 426.066406 574.394531 426.152344 L 573.765625 426.3125 C 575.371094 430.980469 580.40625 430.875 582.609375 435.015625 Z M 582.609375 435.015625 " fill-opacity="1" fill-rule="nonzero"/><path fill="#6c63ff" d="M 474.242188 444.5625 L 474.25 444.582031 L 474.433594 444.230469 Z M 474.242188 444.5625 " fill-opacity="1" fill-rule="nonzero"/><path fill="#6c63ff" d="M 470.359375 452.074219 C 469.511719 453.613281 468.785156 455.207031 468.183594 456.859375 C 467.382812 459.53125 466.855469 462.261719 466.605469 465.042969 C 466.40625 466.617188 466.347656 468.632812 467.335938 469.402344 C 467.628906 469.597656 467.949219 469.671875 468.296875 469.621094 C 468.648438 469.574219 468.9375 469.417969 469.167969 469.152344 C 469.722656 468.566406 470.164062 467.910156 470.496094 467.175781 C 472.449219 463.816406 473.945312 460.269531 474.984375 456.527344 C 475.527344 454.550781 475.734375 452.539062 475.609375 450.492188 C 475.484375 448.449219 475.03125 446.476562 474.25 444.582031 C 472.953125 447.082031 471.65625 449.578125 470.359375 452.074219 Z M 470.359375 452.074219 " fill-opacity="1" fill-rule="nonzero"/><path fill="#6c63ff" d="M 432.914062 251.9375 C 433.222656 252.238281 433.566406 252.492188 433.949219 252.691406 C 434.332031 252.890625 434.734375 253.03125 435.15625 253.113281 C 435.578125 253.199219 436.007812 253.21875 436.433594 253.175781 C 436.863281 253.132812 437.277344 253.03125 437.675781 252.867188 C 439.339844 252.140625 440.835938 251.152344 442.15625 249.90625 C 443.253906 249.097656 444.160156 248.109375 444.875 246.945312 C 445.269531 246.25 445.511719 245.503906 445.609375 244.710938 C 445.707031 243.917969 445.644531 243.136719 445.429688 242.367188 C 445.121094 241.625 444.652344 241.003906 444.023438 240.507812 C 443.390625 240.007812 442.679688 239.695312 441.886719 239.5625 C 439.6875 238.910156 437.488281 238.261719 435.289062 237.609375 L 436.878906 236.175781 C 435.242188 235.296875 433.429688 236.925781 432.410156 238.945312 C 431.75 240.269531 431.296875 241.660156 431.050781 243.121094 C 430.699219 244.65625 430.6875 246.195312 431.011719 247.734375 C 431.335938 249.277344 431.972656 250.675781 432.914062 251.9375 Z M 432.914062 251.9375 " fill-opacity="1" fill-rule="nonzero"/><path fill="#6c63ff" d="M 471.742188 238.90625 C 472.050781 239.246094 472.414062 239.519531 472.828125 239.722656 C 473.242188 239.925781 473.679688 240.046875 474.136719 240.085938 C 474.597656 240.121094 475.046875 240.074219 475.488281 239.941406 C 475.929688 239.804688 476.332031 239.59375 476.691406 239.308594 C 477.320312 238.835938 477.828125 238.257812 478.207031 237.570312 C 478.589844 236.882812 478.816406 236.148438 478.882812 235.363281 C 479.039062 233.632812 478.183594 231.710938 476.960938 231.5625 L 477.242188 229.941406 C 474.886719 229.519531 471.992188 229.433594 470.730469 232.289062 C 470.519531 232.835938 470.378906 233.402344 470.316406 233.988281 C 470.25 234.570312 470.265625 235.152344 470.351562 235.734375 C 470.441406 236.3125 470.601562 236.871094 470.839844 237.410156 C 471.074219 237.949219 471.375 238.445312 471.742188 238.90625 Z M 471.742188 238.90625 " fill-opacity="1" fill-rule="nonzero"/><path fill="#e6e6e6" d="M 326.4375 335.714844 C 326.4375 336.359375 326.414062 337.003906 326.367188 337.644531 C 326.320312 338.289062 326.25 338.925781 326.15625 339.554688 C 326.0625 340.1875 325.945312 340.8125 325.804688 341.429688 C 325.667969 342.046875 325.503906 342.652344 325.320312 343.25 C 325.136719 343.84375 324.929688 344.425781 324.703125 344.996094 C 324.476562 345.5625 324.230469 346.113281 323.964844 346.652344 C 323.695312 347.1875 323.410156 347.703125 323.105469 348.203125 C 322.800781 348.699219 322.476562 349.179688 322.136719 349.632812 C 321.796875 350.089844 321.441406 350.523438 321.070312 350.929688 C 320.699219 351.339844 320.3125 351.722656 319.914062 352.082031 C 319.515625 352.4375 319.101562 352.769531 318.679688 353.074219 C 318.253906 353.378906 317.820312 353.652344 317.375 353.898438 C 316.933594 354.148438 316.480469 354.363281 316.019531 354.550781 C 315.558594 354.738281 315.09375 354.894531 314.621094 355.019531 C 314.152344 355.144531 313.675781 355.238281 313.199219 355.304688 C 312.71875 355.367188 312.238281 355.398438 311.757812 355.398438 C 311.277344 355.398438 310.796875 355.367188 310.320312 355.304688 C 309.839844 355.238281 309.367188 355.144531 308.894531 355.019531 C 308.421875 354.894531 307.957031 354.738281 307.496094 354.550781 C 307.035156 354.363281 306.585938 354.148438 306.140625 353.898438 C 305.695312 353.652344 305.261719 353.378906 304.839844 353.074219 C 304.414062 352.769531 304.003906 352.4375 303.601562 352.082031 C 303.203125 351.722656 302.816406 351.339844 302.445312 350.929688 C 302.074219 350.523438 301.71875 350.089844 301.378906 349.632812 C 301.039062 349.179688 300.714844 348.699219 300.410156 348.203125 C 300.105469 347.703125 299.820312 347.1875 299.554688 346.652344 C 299.285156 346.113281 299.039062 345.5625 298.8125 344.996094 C 298.585938 344.425781 298.378906 343.84375 298.195312 343.25 C 298.011719 342.652344 297.851562 342.046875 297.710938 341.429688 C 297.570312 340.8125 297.453125 340.1875 297.359375 339.554688 C 297.265625 338.925781 297.195312 338.289062 297.148438 337.644531 C 297.101562 337.003906 297.078125 336.359375 297.078125 335.714844 C 297.078125 335.070312 297.101562 334.429688 297.148438 333.789062 C 297.195312 333.144531 297.265625 332.507812 297.359375 331.875 C 297.453125 331.246094 297.570312 330.621094 297.710938 330.003906 C 297.851562 329.386719 298.011719 328.78125 298.195312 328.183594 C 298.378906 327.589844 298.585938 327.007812 298.8125 326.4375 C 299.039062 325.871094 299.285156 325.316406 299.554688 324.78125 C 299.820312 324.246094 300.105469 323.730469 300.410156 323.230469 C 300.714844 322.734375 301.039062 322.253906 301.378906 321.800781 C 301.71875 321.34375 302.074219 320.910156 302.445312 320.503906 C 302.816406 320.09375 303.203125 319.710938 303.601562 319.351562 C 304.003906 318.992188 304.414062 318.664062 304.839844 318.359375 C 305.261719 318.054688 305.695312 317.78125 306.140625 317.535156 C 306.585938 317.285156 307.035156 317.070312 307.496094 316.882812 C 307.957031 316.695312 308.421875 316.539062 308.894531 316.414062 C 309.367188 316.289062 309.839844 316.191406 310.320312 316.128906 C 310.796875 316.066406 311.277344 316.035156 311.757812 316.035156 C 312.238281 316.035156 312.71875 316.066406 313.199219 316.128906 C 313.675781 316.191406 314.152344 316.289062 314.621094 316.414062 C 315.09375 316.539062 315.558594 316.695312 316.019531 316.882812 C 316.480469 317.070312 316.933594 317.285156 317.375 317.535156 C 317.820312 317.78125 318.253906 318.054688 318.679688 318.359375 C 319.101562 318.664062 319.515625 318.992188 319.914062 319.351562 C 320.3125 319.710938 320.699219 320.09375 321.070312 320.503906 C 321.441406 320.910156 321.796875 321.34375 322.136719 321.800781 C 322.476562 322.253906 322.800781 322.734375 323.105469 323.230469 C 323.410156 323.730469 323.695312 324.246094 323.964844 324.78125 C 324.230469 325.316406 324.476562 325.871094 324.703125 326.4375 C 324.929688 327.007812 325.136719 327.589844 325.320312 328.183594 C 325.503906 328.78125 325.667969 329.386719 325.804688 330.003906 C 325.945312 330.621094 326.0625 331.246094 326.15625 331.878906 C 326.25 332.507812 326.320312 333.144531 326.367188 333.789062 C 326.414062 334.429688 326.4375 335.070312 326.4375 335.714844 Z M 326.4375 335.714844 " fill-opacity="1" fill-rule="nonzero"/><path fill="#e6e6e6" d="M 590.355469 586.910156 C 590.507812 587.488281 590.578125 588.082031 590.570312 588.695312 C 590.558594 589.308594 590.464844 589.921875 590.289062 590.542969 C 590.109375 591.164062 589.855469 591.777344 589.519531 592.382812 C 589.1875 592.988281 588.78125 593.574219 588.300781 594.140625 C 587.820312 594.707031 587.277344 595.242188 586.667969 595.75 C 586.0625 596.257812 585.402344 596.722656 584.691406 597.148438 C 583.980469 597.574219 583.230469 597.953125 582.445312 598.285156 C 581.65625 598.617188 580.847656 598.894531 580.015625 599.113281 C 579.179688 599.335938 578.339844 599.5 577.492188 599.605469 C 576.644531 599.707031 575.808594 599.753906 574.980469 599.734375 C 574.148438 599.71875 573.347656 599.640625 572.566406 599.503906 C 571.789062 599.367188 571.050781 599.171875 570.351562 598.917969 C 569.652344 598.664062 569.007812 598.359375 568.417969 598 C 567.828125 597.644531 567.300781 597.238281 566.839844 596.789062 C 566.378906 596.335938 565.988281 595.847656 565.675781 595.324219 C 565.363281 594.800781 565.128906 594.246094 564.972656 593.667969 C 564.820312 593.085938 564.746094 592.492188 564.757812 591.878906 C 564.769531 591.269531 564.863281 590.652344 565.039062 590.03125 C 565.214844 589.410156 565.472656 588.796875 565.804688 588.195312 C 566.140625 587.589844 566.546875 587.003906 567.027344 586.4375 C 567.507812 585.867188 568.050781 585.332031 568.65625 584.824219 C 569.265625 584.320312 569.925781 583.851562 570.636719 583.425781 C 571.34375 583 572.09375 582.621094 572.882812 582.289062 C 573.667969 581.960938 574.480469 581.683594 575.3125 581.460938 C 576.144531 581.238281 576.984375 581.074219 577.832031 580.972656 C 578.679688 580.867188 579.519531 580.824219 580.347656 580.839844 C 581.175781 580.855469 581.980469 580.933594 582.757812 581.070312 C 583.539062 581.207031 584.277344 581.402344 584.972656 581.65625 C 585.671875 581.910156 586.316406 582.214844 586.910156 582.574219 C 587.5 582.933594 588.027344 583.335938 588.488281 583.789062 C 588.949219 584.238281 589.335938 584.726562 589.652344 585.25 C 589.964844 585.777344 590.199219 586.328125 590.355469 586.910156 Z M 590.355469 586.910156 " fill-opacity="1" fill-rule="nonzero"/><path fill="#e6e6e6" d="M 504.550781 588.519531 C 504.703125 589.097656 504.777344 589.695312 504.765625 590.304688 C 504.753906 590.917969 504.660156 591.53125 504.484375 592.152344 C 504.308594 592.773438 504.050781 593.386719 503.71875 593.992188 C 503.382812 594.597656 502.976562 595.183594 502.496094 595.75 C 502.015625 596.316406 501.472656 596.851562 500.863281 597.359375 C 500.257812 597.867188 499.597656 598.332031 498.886719 598.757812 C 498.175781 599.1875 497.429688 599.566406 496.640625 599.894531 C 495.855469 600.226562 495.042969 600.503906 494.210938 600.722656 C 493.378906 600.945312 492.539062 601.109375 491.691406 601.214844 C 490.84375 601.316406 490.003906 601.363281 489.175781 601.34375 C 488.347656 601.328125 487.542969 601.25 486.765625 601.113281 C 485.984375 600.976562 485.246094 600.78125 484.550781 600.527344 C 483.851562 600.273438 483.207031 599.96875 482.613281 599.609375 C 482.023438 599.253906 481.496094 598.847656 481.035156 598.398438 C 480.574219 597.945312 480.1875 597.457031 479.871094 596.933594 C 479.558594 596.410156 479.324219 595.855469 479.167969 595.277344 C 479.015625 594.695312 478.945312 594.101562 478.953125 593.488281 C 478.964844 592.878906 479.058594 592.261719 479.234375 591.640625 C 479.410156 591.019531 479.667969 590.40625 480.003906 589.804688 C 480.335938 589.199219 480.746094 588.613281 481.222656 588.046875 C 481.703125 587.476562 482.246094 586.941406 482.855469 586.433594 C 483.460938 585.929688 484.121094 585.460938 484.832031 585.035156 C 485.542969 584.609375 486.292969 584.230469 487.078125 583.898438 C 487.867188 583.570312 488.675781 583.292969 489.507812 583.070312 C 490.34375 582.847656 491.183594 582.6875 492.03125 582.582031 C 492.878906 582.476562 493.714844 582.433594 494.542969 582.449219 C 495.375 582.464844 496.175781 582.542969 496.957031 582.679688 C 497.734375 582.820312 498.472656 583.015625 499.171875 583.265625 C 499.871094 583.519531 500.515625 583.824219 501.105469 584.183594 C 501.695312 584.542969 502.222656 584.945312 502.683594 585.398438 C 503.144531 585.847656 503.535156 586.335938 503.847656 586.859375 C 504.160156 587.386719 504.394531 587.9375 504.550781 588.519531 Z M 504.550781 588.519531 " fill-opacity="1" fill-rule="nonzero"/><path fill="#e6e6e6" d="M 605.601562 515.5 C 605.757812 516.078125 605.828125 516.675781 605.816406 517.285156 C 605.808594 517.898438 605.714844 518.515625 605.535156 519.132812 C 605.359375 519.753906 605.105469 520.367188 604.769531 520.972656 C 604.4375 521.578125 604.027344 522.164062 603.546875 522.730469 C 603.070312 523.296875 602.523438 523.835938 601.917969 524.339844 C 601.3125 524.847656 600.652344 525.3125 599.941406 525.742188 C 599.230469 526.167969 598.480469 526.546875 597.695312 526.875 C 596.90625 527.207031 596.097656 527.484375 595.265625 527.707031 C 594.429688 527.925781 593.589844 528.089844 592.742188 528.195312 C 591.894531 528.300781 591.058594 528.34375 590.226562 528.328125 C 589.398438 528.308594 588.597656 528.234375 587.816406 528.09375 C 587.039062 527.957031 586.300781 527.761719 585.601562 527.507812 C 584.902344 527.257812 584.257812 526.949219 583.667969 526.59375 C 583.074219 526.234375 582.550781 525.828125 582.089844 525.378906 C 581.625 524.929688 581.238281 524.441406 580.925781 523.914062 C 580.609375 523.390625 580.375 522.835938 580.222656 522.257812 C 580.066406 521.679688 579.996094 521.082031 580.007812 520.472656 C 580.019531 519.859375 580.113281 519.242188 580.289062 518.621094 C 580.464844 518.003906 580.71875 517.390625 581.054688 516.785156 C 581.390625 516.179688 581.796875 515.59375 582.277344 515.027344 C 582.757812 514.460938 583.300781 513.921875 583.90625 513.417969 C 584.515625 512.910156 585.171875 512.445312 585.882812 512.015625 C 586.59375 511.589844 587.34375 511.210938 588.132812 510.882812 C 588.917969 510.550781 589.730469 510.273438 590.5625 510.050781 C 591.394531 509.832031 592.234375 509.667969 593.082031 509.5625 C 593.929688 509.457031 594.769531 509.414062 595.597656 509.429688 C 596.425781 509.449219 597.230469 509.523438 598.007812 509.664062 C 598.785156 509.800781 599.527344 509.996094 600.222656 510.246094 C 600.921875 510.5 601.566406 510.804688 602.160156 511.164062 C 602.75 511.523438 603.277344 511.929688 603.738281 512.378906 C 604.199219 512.828125 604.585938 513.316406 604.902344 513.84375 C 605.214844 514.367188 605.449219 514.917969 605.601562 515.5 Z M 605.601562 515.5 " fill-opacity="1" fill-rule="nonzero"/><path fill="#e6e6e6" d="M 625.277344 488.398438 C 625.347656 488.9375 625.375 489.476562 625.367188 490.015625 C 625.359375 490.558594 625.316406 491.085938 625.234375 491.601562 C 625.152344 492.121094 625.035156 492.617188 624.882812 493.09375 C 624.726562 493.566406 624.542969 494.011719 624.324219 494.429688 C 624.105469 494.84375 623.859375 495.222656 623.582031 495.558594 C 623.304688 495.898438 623.007812 496.195312 622.6875 496.445312 C 622.363281 496.695312 622.023438 496.894531 621.667969 497.046875 C 621.3125 497.195312 620.949219 497.296875 620.570312 497.34375 C 620.195312 497.390625 619.816406 497.382812 619.433594 497.324219 C 619.050781 497.261719 618.675781 497.152344 618.300781 496.988281 C 617.929688 496.824219 617.566406 496.609375 617.214844 496.347656 C 616.867188 496.085938 616.535156 495.78125 616.222656 495.433594 C 615.90625 495.082031 615.617188 494.695312 615.355469 494.273438 C 615.089844 493.847656 614.851562 493.398438 614.648438 492.914062 C 614.441406 492.433594 614.269531 491.933594 614.128906 491.410156 C 613.992188 490.890625 613.886719 490.359375 613.820312 489.816406 C 613.753906 489.277344 613.722656 488.738281 613.730469 488.195312 C 613.738281 487.65625 613.785156 487.128906 613.867188 486.613281 C 613.949219 486.09375 614.066406 485.597656 614.21875 485.121094 C 614.371094 484.648438 614.558594 484.203125 614.777344 483.785156 C 614.996094 483.371094 615.242188 482.992188 615.519531 482.652344 C 615.792969 482.316406 616.09375 482.019531 616.414062 481.769531 C 616.734375 481.519531 617.074219 481.320312 617.429688 481.167969 C 617.785156 481.015625 618.152344 480.917969 618.527344 480.871094 C 618.90625 480.824219 619.285156 480.832031 619.667969 480.890625 C 620.046875 480.949219 620.425781 481.0625 620.796875 481.226562 C 621.171875 481.390625 621.535156 481.601562 621.882812 481.863281 C 622.234375 482.125 622.566406 482.433594 622.878906 482.78125 C 623.191406 483.132812 623.480469 483.515625 623.746094 483.941406 C 624.011719 484.363281 624.246094 484.816406 624.453125 485.300781 C 624.65625 485.78125 624.832031 486.28125 624.96875 486.804688 C 625.109375 487.324219 625.210938 487.855469 625.277344 488.398438 Z M 625.277344 488.398438 " fill-opacity="1" fill-rule="nonzero"/><path fill="#e6e6e6" d="M 631.691406 434.523438 C 631.757812 435.0625 631.785156 435.605469 631.777344 436.144531 C 631.769531 436.683594 631.726562 437.210938 631.644531 437.730469 C 631.5625 438.246094 631.445312 438.742188 631.292969 439.21875 C 631.136719 439.695312 630.953125 440.140625 630.734375 440.554688 C 630.515625 440.96875 630.269531 441.347656 629.992188 441.6875 C 629.71875 442.027344 629.417969 442.320312 629.097656 442.570312 C 628.773438 442.820312 628.4375 443.019531 628.078125 443.171875 C 627.722656 443.324219 627.359375 443.421875 626.980469 443.46875 C 626.605469 443.515625 626.226562 443.507812 625.84375 443.449219 C 625.460938 443.390625 625.085938 443.277344 624.710938 443.113281 C 624.339844 442.949219 623.976562 442.738281 623.625 442.476562 C 623.277344 442.214844 622.945312 441.910156 622.632812 441.558594 C 622.316406 441.210938 622.027344 440.824219 621.765625 440.398438 C 621.5 439.976562 621.265625 439.523438 621.058594 439.042969 C 620.851562 438.558594 620.679688 438.058594 620.539062 437.535156 C 620.402344 437.015625 620.296875 436.484375 620.230469 435.945312 C 620.164062 435.402344 620.136719 434.863281 620.140625 434.324219 C 620.148438 433.785156 620.195312 433.253906 620.277344 432.738281 C 620.359375 432.21875 620.476562 431.722656 620.628906 431.25 C 620.78125 430.773438 620.96875 430.328125 621.1875 429.914062 C 621.40625 429.496094 621.652344 429.121094 621.929688 428.78125 C 622.203125 428.441406 622.503906 428.148438 622.824219 427.898438 C 623.148438 427.648438 623.484375 427.445312 623.839844 427.292969 C 624.195312 427.144531 624.5625 427.042969 624.941406 426.996094 C 625.316406 426.953125 625.695312 426.957031 626.078125 427.015625 C 626.457031 427.078125 626.835938 427.1875 627.210938 427.351562 C 627.582031 427.515625 627.945312 427.730469 628.292969 427.992188 C 628.644531 428.253906 628.976562 428.558594 629.289062 428.90625 C 629.601562 429.257812 629.890625 429.644531 630.15625 430.066406 C 630.421875 430.492188 630.65625 430.945312 630.863281 431.425781 C 631.070312 431.90625 631.242188 432.410156 631.378906 432.929688 C 631.519531 433.453125 631.621094 433.980469 631.691406 434.523438 Z M 631.691406 434.523438 " fill-opacity="1" fill-rule="nonzero"/><path fill="#e6e6e6" d="M 545.160156 538.089844 C 545.226562 538.628906 545.253906 539.171875 545.246094 539.710938 C 545.238281 540.25 545.195312 540.777344 545.113281 541.296875 C 545.03125 541.8125 544.914062 542.308594 544.761719 542.785156 C 544.605469 543.261719 544.421875 543.707031 544.203125 544.121094 C 543.984375 544.535156 543.738281 544.914062 543.460938 545.253906 C 543.1875 545.59375 542.886719 545.886719 542.566406 546.136719 C 542.242188 546.386719 541.90625 546.585938 541.550781 546.738281 C 541.191406 546.890625 540.828125 546.988281 540.449219 547.035156 C 540.074219 547.082031 539.695312 547.074219 539.3125 547.015625 C 538.929688 546.957031 538.554688 546.84375 538.179688 546.679688 C 537.808594 546.515625 537.445312 546.304688 537.09375 546.042969 C 536.746094 545.78125 536.414062 545.476562 536.101562 545.125 C 535.785156 544.777344 535.496094 544.390625 535.234375 543.964844 C 534.96875 543.542969 534.734375 543.089844 534.527344 542.609375 C 534.320312 542.125 534.148438 541.625 534.007812 541.101562 C 533.871094 540.582031 533.765625 540.050781 533.699219 539.511719 C 533.632812 538.96875 533.605469 538.429688 533.609375 537.890625 C 533.617188 537.351562 533.664062 536.820312 533.746094 536.304688 C 533.828125 535.785156 533.945312 535.289062 534.097656 534.816406 C 534.25 534.339844 534.4375 533.894531 534.65625 533.480469 C 534.875 533.0625 535.121094 532.6875 535.398438 532.347656 C 535.671875 532.007812 535.972656 531.714844 536.292969 531.464844 C 536.617188 531.214844 536.953125 531.011719 537.308594 530.859375 C 537.667969 530.710938 538.03125 530.609375 538.410156 530.5625 C 538.785156 530.519531 539.164062 530.523438 539.546875 530.582031 C 539.925781 530.644531 540.304688 530.753906 540.679688 530.917969 C 541.050781 531.082031 541.414062 531.296875 541.761719 531.558594 C 542.113281 531.820312 542.445312 532.125 542.757812 532.472656 C 543.070312 532.824219 543.359375 533.210938 543.625 533.632812 C 543.890625 534.058594 544.125 534.511719 544.332031 534.992188 C 544.539062 535.472656 544.710938 535.976562 544.847656 536.496094 C 544.988281 537.019531 545.089844 537.550781 545.160156 538.089844 Z M 545.160156 538.089844 " fill-opacity="1" fill-rule="nonzero"/><path fill="#e6e6e6" d="M 588.558594 553.796875 C 588.625 554.335938 588.65625 554.875 588.648438 555.414062 C 588.640625 555.957031 588.597656 556.484375 588.515625 557 C 588.433594 557.519531 588.3125 558.015625 588.160156 558.492188 C 588.007812 558.964844 587.820312 559.410156 587.601562 559.828125 C 587.382812 560.242188 587.136719 560.621094 586.863281 560.957031 C 586.585938 561.296875 586.289062 561.59375 585.964844 561.84375 C 585.644531 562.09375 585.304688 562.292969 584.949219 562.445312 C 584.59375 562.597656 584.226562 562.695312 583.851562 562.742188 C 583.476562 562.789062 583.097656 562.78125 582.714844 562.722656 C 582.332031 562.660156 581.953125 562.550781 581.582031 562.386719 C 581.207031 562.222656 580.847656 562.007812 580.496094 561.746094 C 580.144531 561.488281 579.8125 561.179688 579.5 560.832031 C 579.1875 560.480469 578.898438 560.09375 578.632812 559.671875 C 578.367188 559.246094 578.132812 558.796875 577.925781 558.3125 C 577.722656 557.832031 577.550781 557.332031 577.410156 556.808594 C 577.269531 556.289062 577.167969 555.757812 577.101562 555.214844 C 577.035156 554.675781 577.003906 554.136719 577.011719 553.59375 C 577.019531 553.054688 577.0625 552.527344 577.144531 552.011719 C 577.226562 551.492188 577.34375 550.996094 577.5 550.519531 C 577.652344 550.046875 577.839844 549.601562 578.058594 549.183594 C 578.273438 548.769531 578.523438 548.390625 578.796875 548.054688 C 579.074219 547.714844 579.371094 547.417969 579.695312 547.167969 C 580.015625 546.917969 580.355469 546.71875 580.710938 546.566406 C 581.066406 546.414062 581.433594 546.316406 581.808594 546.269531 C 582.183594 546.222656 582.5625 546.230469 582.945312 546.289062 C 583.328125 546.351562 583.707031 546.460938 584.078125 546.625 C 584.453125 546.789062 584.8125 547 585.164062 547.261719 C 585.511719 547.523438 585.84375 547.832031 586.160156 548.179688 C 586.472656 548.53125 586.761719 548.917969 587.027344 549.339844 C 587.289062 549.761719 587.527344 550.214844 587.730469 550.699219 C 587.9375 551.179688 588.109375 551.679688 588.25 552.203125 C 588.390625 552.722656 588.492188 553.253906 588.558594 553.796875 Z M 588.558594 553.796875 " fill-opacity="1" fill-rule="nonzero"/><path fill="#e6e6e6" d="M 535.863281 598.28125 C 535.929688 598.820312 535.960938 599.363281 535.953125 599.902344 C 535.945312 600.441406 535.898438 600.96875 535.816406 601.488281 C 535.734375 602.003906 535.617188 602.5 535.464844 602.976562 C 535.3125 603.453125 535.125 603.898438 534.90625 604.3125 C 534.6875 604.726562 534.441406 605.105469 534.167969 605.445312 C 533.890625 605.785156 533.589844 606.078125 533.269531 606.328125 C 532.949219 606.578125 532.609375 606.777344 532.253906 606.929688 C 531.898438 607.082031 531.53125 607.179688 531.15625 607.226562 C 530.777344 607.273438 530.398438 607.265625 530.019531 607.207031 C 529.636719 607.148438 529.257812 607.035156 528.886719 606.871094 C 528.511719 606.707031 528.148438 606.496094 527.800781 606.234375 C 527.449219 605.972656 527.117188 605.667969 526.804688 605.316406 C 526.492188 604.96875 526.203125 604.582031 525.9375 604.15625 C 525.671875 603.734375 525.4375 603.28125 525.230469 602.800781 C 525.027344 602.316406 524.851562 601.816406 524.714844 601.292969 C 524.574219 600.773438 524.472656 600.242188 524.40625 599.703125 C 524.335938 599.160156 524.308594 598.621094 524.316406 598.082031 C 524.324219 597.542969 524.367188 597.011719 524.449219 596.496094 C 524.53125 595.976562 524.648438 595.480469 524.804688 595.007812 C 524.957031 594.53125 525.140625 594.085938 525.359375 593.671875 C 525.578125 593.253906 525.828125 592.878906 526.101562 592.539062 C 526.378906 592.199219 526.675781 591.90625 527 591.65625 C 527.320312 591.40625 527.660156 591.203125 528.015625 591.050781 C 528.371094 590.902344 528.738281 590.800781 529.113281 590.753906 C 529.488281 590.710938 529.867188 590.714844 530.25 590.777344 C 530.632812 590.835938 531.007812 590.945312 531.382812 591.109375 C 531.757812 591.273438 532.117188 591.488281 532.46875 591.75 C 532.816406 592.011719 533.148438 592.316406 533.464844 592.664062 C 533.777344 593.015625 534.066406 593.402344 534.332031 593.824219 C 534.59375 594.25 534.832031 594.703125 535.035156 595.183594 C 535.242188 595.664062 535.414062 596.167969 535.554688 596.6875 C 535.691406 597.210938 535.796875 597.742188 535.863281 598.28125 Z M 535.863281 598.28125 " fill-opacity="1" fill-rule="nonzero"/><path fill="#e6e6e6" d="M 163.667969 514.832031 C 163.820312 515.410156 163.894531 516.007812 163.882812 516.617188 C 163.871094 517.230469 163.777344 517.847656 163.601562 518.464844 C 163.425781 519.085938 163.167969 519.699219 162.835938 520.304688 C 162.5 520.910156 162.09375 521.496094 161.613281 522.0625 C 161.132812 522.628906 160.589844 523.164062 159.980469 523.671875 C 159.375 524.179688 158.714844 524.644531 158.003906 525.070312 C 157.292969 525.5 156.546875 525.878906 155.757812 526.207031 C 154.972656 526.539062 154.160156 526.816406 153.328125 527.035156 C 152.496094 527.257812 151.652344 527.421875 150.804688 527.527344 C 149.960938 527.632812 149.121094 527.675781 148.292969 527.660156 C 147.464844 527.640625 146.660156 527.5625 145.878906 527.425781 C 145.101562 527.289062 144.363281 527.09375 143.664062 526.839844 C 142.96875 526.589844 142.320312 526.28125 141.730469 525.925781 C 141.140625 525.566406 140.613281 525.160156 140.152344 524.710938 C 139.691406 524.257812 139.300781 523.773438 138.988281 523.246094 C 138.675781 522.722656 138.441406 522.167969 138.285156 521.589844 C 138.132812 521.011719 138.058594 520.414062 138.070312 519.800781 C 138.082031 519.191406 138.175781 518.574219 138.351562 517.953125 C 138.527344 517.335938 138.785156 516.722656 139.117188 516.117188 C 139.453125 515.511719 139.859375 514.925781 140.339844 514.359375 C 140.820312 513.792969 141.363281 513.253906 141.972656 512.75 C 142.578125 512.242188 143.238281 511.773438 143.949219 511.347656 C 144.660156 510.921875 145.40625 510.542969 146.195312 510.210938 C 146.980469 509.882812 147.792969 509.605469 148.625 509.382812 C 149.457031 509.160156 150.300781 509 151.144531 508.894531 C 151.992188 508.789062 152.832031 508.746094 153.660156 508.761719 C 154.488281 508.777344 155.292969 508.855469 156.070312 508.992188 C 156.851562 509.132812 157.589844 509.328125 158.289062 509.578125 C 158.984375 509.832031 159.628906 510.136719 160.222656 510.496094 C 160.8125 510.855469 161.339844 511.261719 161.800781 511.710938 C 162.261719 512.160156 162.648438 512.648438 162.964844 513.175781 C 163.277344 513.699219 163.511719 514.25 163.667969 514.832031 Z M 163.667969 514.832031 " fill-opacity="1" fill-rule="nonzero"/><path fill="#e6e6e6" d="M 77.824219 516.421875 C 77.980469 517 78.050781 517.59375 78.039062 518.207031 C 78.027344 518.820312 77.933594 519.433594 77.757812 520.054688 C 77.582031 520.675781 77.328125 521.289062 76.992188 521.894531 C 76.660156 522.5 76.25 523.085938 75.769531 523.652344 C 75.292969 524.21875 74.746094 524.753906 74.140625 525.261719 C 73.535156 525.769531 72.875 526.234375 72.164062 526.660156 C 71.453125 527.089844 70.703125 527.46875 69.917969 527.796875 C 69.128906 528.128906 68.320312 528.40625 67.488281 528.625 C 66.652344 528.847656 65.8125 529.011719 64.964844 529.117188 C 64.117188 529.21875 63.28125 529.265625 62.449219 529.246094 C 61.621094 529.230469 60.816406 529.152344 60.039062 529.015625 C 59.261719 528.878906 58.523438 528.683594 57.824219 528.429688 C 57.125 528.175781 56.480469 527.871094 55.890625 527.511719 C 55.296875 527.15625 54.773438 526.75 54.308594 526.300781 C 53.847656 525.847656 53.460938 525.359375 53.148438 524.835938 C 52.832031 524.3125 52.597656 523.757812 52.445312 523.179688 C 52.289062 522.597656 52.21875 522.003906 52.230469 521.390625 C 52.242188 520.78125 52.335938 520.164062 52.511719 519.542969 C 52.6875 518.921875 52.941406 518.3125 53.277344 517.707031 C 53.613281 517.101562 54.019531 516.515625 54.5 515.949219 C 54.980469 515.382812 55.523438 514.84375 56.128906 514.339844 C 56.738281 513.832031 57.394531 513.363281 58.105469 512.9375 C 58.816406 512.511719 59.566406 512.132812 60.351562 511.800781 C 61.140625 511.472656 61.949219 511.195312 62.785156 510.972656 C 63.617188 510.75 64.457031 510.585938 65.304688 510.484375 C 66.152344 510.378906 66.992188 510.335938 67.820312 510.351562 C 68.648438 510.367188 69.453125 510.445312 70.230469 510.582031 C 71.007812 510.71875 71.746094 510.914062 72.445312 511.167969 C 73.144531 511.421875 73.789062 511.726562 74.378906 512.085938 C 74.972656 512.445312 75.5 512.847656 75.960938 513.300781 C 76.421875 513.75 76.808594 514.238281 77.121094 514.761719 C 77.4375 515.289062 77.671875 515.839844 77.824219 516.421875 Z M 77.824219 516.421875 " fill-opacity="1" fill-rule="nonzero"/><path fill="#e6e6e6" d="M 178.957031 443.441406 C 179.113281 444.023438 179.183594 444.617188 179.171875 445.230469 C 179.160156 445.839844 179.066406 446.457031 178.890625 447.078125 C 178.714844 447.699219 178.460938 448.308594 178.125 448.914062 C 177.789062 449.519531 177.382812 450.105469 176.902344 450.671875 C 176.421875 451.238281 175.878906 451.777344 175.273438 452.28125 C 174.664062 452.789062 174.003906 453.257812 173.296875 453.683594 C 172.585938 454.109375 171.835938 454.488281 171.046875 454.820312 C 170.261719 455.148438 169.449219 455.425781 168.617188 455.648438 C 167.785156 455.871094 166.945312 456.03125 166.097656 456.136719 C 165.25 456.242188 164.410156 456.285156 163.582031 456.269531 C 162.753906 456.253906 161.949219 456.175781 161.171875 456.039062 C 160.390625 455.898438 159.652344 455.703125 158.957031 455.453125 C 158.257812 455.199219 157.613281 454.894531 157.019531 454.535156 C 156.429688 454.175781 155.902344 453.769531 155.441406 453.320312 C 154.980469 452.871094 154.59375 452.382812 154.277344 451.855469 C 153.964844 451.332031 153.730469 450.78125 153.578125 450.199219 C 153.421875 449.621094 153.351562 449.023438 153.363281 448.414062 C 153.371094 447.800781 153.464844 447.183594 153.644531 446.566406 C 153.820312 445.945312 154.074219 445.332031 154.410156 444.726562 C 154.742188 444.121094 155.152344 443.535156 155.632812 442.96875 C 156.109375 442.402344 156.65625 441.867188 157.261719 441.359375 C 157.867188 440.851562 158.527344 440.386719 159.238281 439.960938 C 159.949219 439.53125 160.699219 439.152344 161.484375 438.824219 C 162.273438 438.492188 163.082031 438.214844 163.914062 437.996094 C 164.75 437.773438 165.589844 437.609375 166.4375 437.503906 C 167.285156 437.398438 168.121094 437.355469 168.949219 437.375 C 169.78125 437.390625 170.582031 437.46875 171.363281 437.605469 C 172.140625 437.742188 172.878906 437.9375 173.578125 438.191406 C 174.277344 438.441406 174.921875 438.75 175.511719 439.109375 C 176.105469 439.464844 176.628906 439.871094 177.089844 440.320312 C 177.554688 440.773438 177.941406 441.261719 178.253906 441.785156 C 178.570312 442.308594 178.804688 442.863281 178.957031 443.441406 Z M 178.957031 443.441406 " fill-opacity="1" fill-rule="nonzero"/><path fill="#e6e6e6" d="M 198.59375 416.320312 C 198.660156 416.859375 198.691406 417.402344 198.683594 417.941406 C 198.675781 418.480469 198.632812 419.007812 198.550781 419.527344 C 198.46875 420.042969 198.347656 420.539062 198.195312 421.015625 C 198.042969 421.492188 197.855469 421.9375 197.636719 422.351562 C 197.417969 422.765625 197.171875 423.144531 196.898438 423.484375 C 196.621094 423.824219 196.324219 424.117188 196 424.367188 C 195.679688 424.617188 195.339844 424.816406 194.984375 424.96875 C 194.628906 425.121094 194.261719 425.21875 193.886719 425.265625 C 193.511719 425.3125 193.132812 425.304688 192.75 425.246094 C 192.367188 425.1875 191.988281 425.074219 191.617188 424.910156 C 191.242188 424.746094 190.882812 424.535156 190.53125 424.273438 C 190.179688 424.011719 189.847656 423.707031 189.535156 423.355469 C 189.222656 423.007812 188.933594 422.621094 188.667969 422.195312 C 188.402344 421.773438 188.167969 421.320312 187.960938 420.839844 C 187.757812 420.355469 187.585938 419.855469 187.445312 419.335938 C 187.304688 418.8125 187.203125 418.28125 187.136719 417.742188 C 187.070312 417.199219 187.039062 416.660156 187.046875 416.121094 C 187.054688 415.582031 187.097656 415.054688 187.179688 414.535156 C 187.261719 414.019531 187.378906 413.519531 187.535156 413.046875 C 187.6875 412.570312 187.875 412.125 188.09375 411.710938 C 188.308594 411.292969 188.558594 410.917969 188.832031 410.578125 C 189.109375 410.238281 189.40625 409.945312 189.730469 409.695312 C 190.050781 409.445312 190.390625 409.242188 190.746094 409.09375 C 191.101562 408.941406 191.46875 408.84375 191.84375 408.796875 C 192.21875 408.75 192.597656 408.753906 192.980469 408.816406 C 193.363281 408.875 193.742188 408.988281 194.113281 409.148438 C 194.488281 409.3125 194.847656 409.527344 195.199219 409.789062 C 195.550781 410.050781 195.878906 410.355469 196.195312 410.707031 C 196.507812 411.054688 196.796875 411.441406 197.0625 411.863281 C 197.324219 412.289062 197.5625 412.742188 197.765625 413.222656 C 197.972656 413.703125 198.144531 414.207031 198.285156 414.726562 C 198.425781 415.25 198.527344 415.78125 198.59375 416.320312 Z M 198.59375 416.320312 " fill-opacity="1" fill-rule="nonzero"/><path fill="#e6e6e6" d="M 205.003906 362.445312 C 205.070312 362.984375 205.101562 363.527344 205.09375 364.066406 C 205.085938 364.605469 205.039062 365.132812 204.957031 365.652344 C 204.875 366.167969 204.757812 366.664062 204.605469 367.140625 C 204.453125 367.617188 204.265625 368.0625 204.046875 368.476562 C 203.828125 368.890625 203.582031 369.269531 203.304688 369.609375 C 203.03125 369.949219 202.730469 370.242188 202.410156 370.492188 C 202.089844 370.742188 201.75 370.941406 201.394531 371.09375 C 201.039062 371.246094 200.671875 371.34375 200.296875 371.390625 C 199.917969 371.4375 199.539062 371.429688 199.15625 371.371094 C 198.777344 371.3125 198.398438 371.199219 198.023438 371.035156 C 197.652344 370.871094 197.289062 370.660156 196.941406 370.398438 C 196.589844 370.136719 196.257812 369.832031 195.945312 369.480469 C 195.632812 369.132812 195.34375 368.746094 195.078125 368.320312 C 194.8125 367.898438 194.578125 367.445312 194.371094 366.964844 C 194.167969 366.480469 193.992188 365.980469 193.855469 365.457031 C 193.714844 364.9375 193.613281 364.40625 193.546875 363.867188 C 193.476562 363.324219 193.449219 362.785156 193.457031 362.246094 C 193.464844 361.707031 193.507812 361.175781 193.589844 360.660156 C 193.671875 360.144531 193.789062 359.644531 193.941406 359.171875 C 194.097656 358.695312 194.28125 358.25 194.5 357.835938 C 194.71875 357.417969 194.964844 357.042969 195.242188 356.703125 C 195.515625 356.363281 195.816406 356.070312 196.136719 355.820312 C 196.460938 355.570312 196.796875 355.367188 197.15625 355.21875 C 197.511719 355.066406 197.875 354.964844 198.253906 354.921875 C 198.628906 354.875 199.007812 354.878906 199.390625 354.941406 C 199.773438 355 200.148438 355.113281 200.523438 355.273438 C 200.894531 355.4375 201.257812 355.652344 201.609375 355.914062 C 201.957031 356.175781 202.289062 356.480469 202.601562 356.828125 C 202.917969 357.179688 203.207031 357.566406 203.46875 357.988281 C 203.734375 358.414062 203.96875 358.867188 204.175781 359.347656 C 204.382812 359.828125 204.554688 360.332031 204.695312 360.851562 C 204.832031 361.375 204.9375 361.90625 205.003906 362.445312 Z M 205.003906 362.445312 " fill-opacity="1" fill-rule="nonzero"/><path fill="#e6e6e6" d="M 118.472656 466.011719 C 118.539062 466.550781 118.570312 467.09375 118.5625 467.632812 C 118.554688 468.171875 118.511719 468.699219 118.429688 469.21875 C 118.347656 469.734375 118.230469 470.230469 118.074219 470.707031 C 117.921875 471.183594 117.738281 471.628906 117.519531 472.042969 C 117.300781 472.457031 117.050781 472.835938 116.777344 473.175781 C 116.5 473.515625 116.203125 473.808594 115.878906 474.058594 C 115.558594 474.308594 115.21875 474.507812 114.863281 474.660156 C 114.507812 474.8125 114.140625 474.910156 113.765625 474.957031 C 113.390625 475.003906 113.011719 474.996094 112.628906 474.9375 C 112.246094 474.878906 111.867188 474.765625 111.496094 474.601562 C 111.121094 474.4375 110.761719 474.226562 110.410156 473.964844 C 110.0625 473.703125 109.730469 473.398438 109.414062 473.046875 C 109.101562 472.699219 108.8125 472.3125 108.546875 471.886719 C 108.285156 471.464844 108.046875 471.011719 107.84375 470.53125 C 107.636719 470.046875 107.464844 469.546875 107.324219 469.027344 C 107.1875 468.503906 107.082031 467.972656 107.015625 467.433594 C 106.949219 466.890625 106.917969 466.351562 106.925781 465.8125 C 106.933594 465.273438 106.980469 464.742188 107.0625 464.226562 C 107.144531 463.710938 107.261719 463.210938 107.414062 462.738281 C 107.566406 462.261719 107.753906 461.816406 107.972656 461.402344 C 108.191406 460.984375 108.4375 460.609375 108.710938 460.269531 C 108.988281 459.929688 109.285156 459.636719 109.609375 459.386719 C 109.929688 459.136719 110.269531 458.933594 110.625 458.785156 C 110.980469 458.632812 111.347656 458.535156 111.722656 458.488281 C 112.097656 458.441406 112.480469 458.445312 112.859375 458.507812 C 113.242188 458.566406 113.621094 458.679688 113.992188 458.839844 C 114.367188 459.003906 114.726562 459.21875 115.078125 459.480469 C 115.429688 459.742188 115.761719 460.046875 116.074219 460.394531 C 116.386719 460.746094 116.675781 461.132812 116.941406 461.554688 C 117.207031 461.980469 117.441406 462.433594 117.648438 462.914062 C 117.851562 463.394531 118.027344 463.898438 118.164062 464.417969 C 118.304688 464.941406 118.40625 465.472656 118.472656 466.011719 Z M 118.472656 466.011719 " fill-opacity="1" fill-rule="nonzero"/><path fill="#e6e6e6" d="M 161.871094 481.71875 C 161.941406 482.257812 161.96875 482.796875 161.960938 483.335938 C 161.953125 483.878906 161.910156 484.40625 161.828125 484.921875 C 161.746094 485.441406 161.628906 485.9375 161.472656 486.414062 C 161.320312 486.886719 161.136719 487.332031 160.917969 487.75 C 160.699219 488.164062 160.449219 488.542969 160.175781 488.878906 C 159.898438 489.21875 159.601562 489.515625 159.277344 489.765625 C 158.957031 490.015625 158.617188 490.214844 158.261719 490.367188 C 157.90625 490.519531 157.539062 490.617188 157.164062 490.664062 C 156.789062 490.710938 156.410156 490.703125 156.027344 490.644531 C 155.644531 490.582031 155.265625 490.472656 154.894531 490.308594 C 154.519531 490.144531 154.160156 489.929688 153.808594 489.671875 C 153.460938 489.410156 153.128906 489.101562 152.8125 488.753906 C 152.5 488.402344 152.210938 488.015625 151.945312 487.59375 C 151.683594 487.171875 151.445312 486.71875 151.242188 486.234375 C 151.035156 485.753906 150.863281 485.253906 150.722656 484.730469 C 150.585938 484.210938 150.480469 483.679688 150.414062 483.136719 C 150.347656 482.597656 150.316406 482.058594 150.324219 481.519531 C 150.332031 480.976562 150.378906 480.449219 150.460938 479.933594 C 150.542969 479.414062 150.660156 478.917969 150.8125 478.441406 C 150.964844 477.96875 151.152344 477.523438 151.371094 477.105469 C 151.589844 476.691406 151.835938 476.3125 152.109375 475.976562 C 152.386719 475.636719 152.683594 475.339844 153.007812 475.089844 C 153.328125 474.839844 153.667969 474.640625 154.023438 474.488281 C 154.378906 474.335938 154.746094 474.238281 155.121094 474.191406 C 155.5 474.144531 155.878906 474.152344 156.257812 474.210938 C 156.640625 474.273438 157.019531 474.382812 157.390625 474.546875 C 157.765625 474.710938 158.125 474.925781 158.476562 475.183594 C 158.828125 475.445312 159.160156 475.753906 159.472656 476.101562 C 159.785156 476.453125 160.074219 476.839844 160.339844 477.261719 C 160.605469 477.683594 160.839844 478.136719 161.046875 478.621094 C 161.25 479.101562 161.425781 479.601562 161.5625 480.125 C 161.703125 480.644531 161.804688 481.175781 161.871094 481.71875 Z M 161.871094 481.71875 " fill-opacity="1" fill-rule="nonzero"/><path fill="#e6e6e6" d="M 109.179688 526.203125 C 109.246094 526.746094 109.273438 527.285156 109.265625 527.824219 C 109.261719 528.363281 109.214844 528.894531 109.132812 529.410156 C 109.050781 529.925781 108.933594 530.425781 108.78125 530.898438 C 108.625 531.375 108.441406 531.820312 108.222656 532.234375 C 108.003906 532.652344 107.757812 533.027344 107.480469 533.367188 C 107.207031 533.707031 106.90625 534 106.585938 534.25 C 106.261719 534.5 105.925781 534.703125 105.570312 534.855469 C 105.210938 535.003906 104.847656 535.105469 104.46875 535.152344 C 104.09375 535.195312 103.714844 535.191406 103.332031 535.128906 C 102.949219 535.070312 102.574219 534.960938 102.199219 534.796875 C 101.828125 534.632812 101.464844 534.417969 101.113281 534.15625 C 100.765625 533.894531 100.433594 533.589844 100.121094 533.242188 C 99.808594 532.890625 99.519531 532.503906 99.253906 532.082031 C 98.988281 531.65625 98.753906 531.203125 98.546875 530.722656 C 98.339844 530.242188 98.167969 529.738281 98.03125 529.21875 C 97.890625 528.695312 97.785156 528.164062 97.71875 527.625 C 97.652344 527.085938 97.625 526.542969 97.628906 526.003906 C 97.636719 525.464844 97.683594 524.9375 97.765625 524.417969 C 97.847656 523.902344 97.964844 523.40625 98.117188 522.929688 C 98.269531 522.453125 98.457031 522.007812 98.675781 521.59375 C 98.894531 521.179688 99.140625 520.800781 99.417969 520.460938 C 99.691406 520.121094 99.992188 519.828125 100.3125 519.578125 C 100.636719 519.328125 100.972656 519.128906 101.328125 518.976562 C 101.6875 518.824219 102.050781 518.726562 102.429688 518.679688 C 102.804688 518.632812 103.183594 518.640625 103.566406 518.699219 C 103.945312 518.757812 104.324219 518.871094 104.699219 519.035156 C 105.070312 519.199219 105.433594 519.410156 105.78125 519.671875 C 106.132812 519.933594 106.464844 520.238281 106.777344 520.589844 C 107.089844 520.9375 107.378906 521.324219 107.644531 521.75 C 107.910156 522.171875 108.144531 522.625 108.351562 523.105469 C 108.558594 523.589844 108.730469 524.089844 108.867188 524.613281 C 109.007812 525.132812 109.109375 525.664062 109.179688 526.203125 Z M 109.179688 526.203125 " fill-opacity="1" fill-rule="nonzero"/><path fill="#e6e6e6" d="M 685.199219 184.804688 C 685.351562 185.386719 685.421875 185.980469 685.410156 186.59375 C 685.402344 187.203125 685.308594 187.820312 685.128906 188.441406 C 684.953125 189.0625 684.699219 189.671875 684.363281 190.277344 C 684.03125 190.882812 683.621094 191.46875 683.144531 192.035156 C 682.664062 192.601562 682.117188 193.140625 681.511719 193.644531 C 680.90625 194.152344 680.246094 194.621094 679.535156 195.046875 C 678.824219 195.472656 678.074219 195.851562 677.289062 196.183594 C 676.5 196.511719 675.691406 196.789062 674.859375 197.011719 C 674.023438 197.234375 673.183594 197.394531 672.335938 197.5 C 671.488281 197.605469 670.652344 197.648438 669.824219 197.632812 C 668.992188 197.617188 668.191406 197.539062 667.410156 197.402344 C 666.632812 197.261719 665.894531 197.070312 665.195312 196.816406 C 664.496094 196.5625 663.851562 196.257812 663.261719 195.898438 C 662.671875 195.539062 662.144531 195.136719 661.683594 194.683594 C 661.21875 194.234375 660.832031 193.746094 660.519531 193.222656 C 660.203125 192.695312 659.972656 192.144531 659.816406 191.5625 C 659.660156 190.984375 659.589844 190.386719 659.601562 189.777344 C 659.613281 189.164062 659.707031 188.550781 659.882812 187.929688 C 660.058594 187.308594 660.3125 186.695312 660.648438 186.089844 C 660.984375 185.484375 661.390625 184.898438 661.871094 184.332031 C 662.351562 183.765625 662.894531 183.230469 663.5 182.722656 C 664.109375 182.214844 664.765625 181.75 665.476562 181.324219 C 666.1875 180.894531 666.9375 180.515625 667.726562 180.1875 C 668.511719 179.855469 669.324219 179.578125 670.15625 179.359375 C 670.988281 179.136719 671.828125 178.972656 672.675781 178.867188 C 673.523438 178.761719 674.363281 178.71875 675.191406 178.738281 C 676.019531 178.753906 676.824219 178.832031 677.601562 178.96875 C 678.382812 179.105469 679.121094 179.300781 679.816406 179.554688 C 680.515625 179.804688 681.160156 180.113281 681.753906 180.472656 C 682.34375 180.828125 682.871094 181.234375 683.332031 181.683594 C 683.792969 182.136719 684.179688 182.621094 684.496094 183.148438 C 684.808594 183.671875 685.042969 184.226562 685.199219 184.804688 Z M 685.199219 184.804688 " fill-opacity="1" fill-rule="nonzero"/><path fill="#e6e6e6" d="M 599.355469 186.394531 C 599.511719 186.972656 599.582031 187.570312 599.570312 188.179688 C 599.558594 188.792969 599.464844 189.410156 599.289062 190.03125 C 599.113281 190.648438 598.859375 191.261719 598.523438 191.867188 C 598.1875 192.472656 597.78125 193.058594 597.300781 193.625 C 596.820312 194.191406 596.277344 194.730469 595.671875 195.234375 C 595.0625 195.742188 594.40625 196.207031 593.695312 196.636719 C 592.984375 197.0625 592.234375 197.441406 591.445312 197.773438 C 590.660156 198.101562 589.851562 198.378906 589.015625 198.601562 C 588.183594 198.824219 587.34375 198.984375 586.496094 199.089844 C 585.648438 199.195312 584.808594 199.238281 583.980469 199.222656 C 583.152344 199.207031 582.347656 199.128906 581.570312 198.992188 C 580.792969 198.851562 580.050781 198.65625 579.355469 198.40625 C 578.65625 198.152344 578.011719 197.847656 577.417969 197.488281 C 576.828125 197.128906 576.300781 196.722656 575.839844 196.273438 C 575.378906 195.824219 574.992188 195.335938 574.675781 194.808594 C 574.363281 194.285156 574.128906 193.734375 573.976562 193.152344 C 573.820312 192.574219 573.75 191.976562 573.761719 191.367188 C 573.769531 190.753906 573.863281 190.136719 574.042969 189.519531 C 574.21875 188.898438 574.472656 188.285156 574.808594 187.679688 C 575.140625 187.074219 575.550781 186.488281 576.03125 185.921875 C 576.507812 185.355469 577.054688 184.820312 577.660156 184.3125 C 578.265625 183.804688 578.925781 183.339844 579.636719 182.914062 C 580.347656 182.484375 581.097656 182.105469 581.882812 181.777344 C 582.671875 181.445312 583.480469 181.167969 584.3125 180.945312 C 585.148438 180.726562 585.988281 180.5625 586.835938 180.457031 C 587.683594 180.351562 588.519531 180.308594 589.351562 180.324219 C 590.179688 180.34375 590.980469 180.417969 591.761719 180.558594 C 592.539062 180.695312 593.277344 180.890625 593.976562 181.144531 C 594.675781 181.394531 595.320312 181.703125 595.910156 182.058594 C 596.503906 182.417969 597.027344 182.824219 597.488281 183.273438 C 597.953125 183.722656 598.339844 184.210938 598.652344 184.738281 C 598.96875 185.261719 599.203125 185.816406 599.355469 186.394531 Z M 599.355469 186.394531 " fill-opacity="1" fill-rule="nonzero"/><path fill="#e6e6e6" d="M 700.484375 113.414062 C 700.640625 113.996094 700.710938 114.589844 700.699219 115.203125 C 700.6875 115.8125 700.59375 116.429688 700.417969 117.050781 C 700.242188 117.671875 699.988281 118.28125 699.652344 118.886719 C 699.316406 119.492188 698.910156 120.078125 698.429688 120.644531 C 697.949219 121.210938 697.40625 121.75 696.800781 122.257812 C 696.191406 122.761719 695.535156 123.230469 694.824219 123.65625 C 694.113281 124.082031 693.363281 124.460938 692.578125 124.792969 C 691.789062 125.121094 690.980469 125.398438 690.144531 125.621094 C 689.3125 125.84375 688.472656 126.003906 687.625 126.109375 C 686.777344 126.214844 685.9375 126.257812 685.109375 126.242188 C 684.28125 126.226562 683.476562 126.148438 682.699219 126.011719 C 681.921875 125.871094 681.183594 125.679688 680.484375 125.425781 C 679.785156 125.171875 679.140625 124.867188 678.550781 124.507812 C 677.957031 124.148438 677.429688 123.746094 676.96875 123.292969 C 676.507812 122.84375 676.121094 122.355469 675.804688 121.832031 C 675.492188 121.304688 675.257812 120.753906 675.105469 120.171875 C 674.949219 119.59375 674.878906 118.996094 674.890625 118.386719 C 674.902344 117.773438 674.996094 117.160156 675.171875 116.539062 C 675.347656 115.917969 675.601562 115.304688 675.9375 114.699219 C 676.269531 114.09375 676.679688 113.507812 677.160156 112.941406 C 677.640625 112.375 678.183594 111.839844 678.789062 111.332031 C 679.394531 110.824219 680.054688 110.359375 680.765625 109.933594 C 681.476562 109.503906 682.226562 109.125 683.011719 108.796875 C 683.800781 108.464844 684.609375 108.1875 685.445312 107.96875 C 686.277344 107.746094 687.117188 107.582031 687.964844 107.476562 C 688.8125 107.375 689.648438 107.328125 690.480469 107.347656 C 691.308594 107.363281 692.113281 107.441406 692.890625 107.578125 C 693.667969 107.714844 694.40625 107.910156 695.105469 108.164062 C 695.804688 108.417969 696.449219 108.722656 697.039062 109.082031 C 697.632812 109.4375 698.15625 109.84375 698.621094 110.292969 C 699.082031 110.746094 699.46875 111.234375 699.78125 111.757812 C 700.097656 112.28125 700.332031 112.835938 700.484375 113.414062 Z M 700.484375 113.414062 " fill-opacity="1" fill-rule="nonzero"/><path fill="#e6e6e6" d="M 720.125 86.292969 C 720.191406 86.832031 720.21875 87.375 720.214844 87.914062 C 720.207031 88.453125 720.160156 88.980469 720.078125 89.5 C 719.996094 90.015625 719.878906 90.511719 719.726562 90.988281 C 719.574219 91.464844 719.386719 91.910156 719.167969 92.324219 C 718.949219 92.738281 718.703125 93.117188 718.425781 93.457031 C 718.152344 93.796875 717.851562 94.089844 717.53125 94.339844 C 717.207031 94.589844 716.871094 94.789062 716.515625 94.941406 C 716.15625 95.09375 715.792969 95.191406 715.417969 95.238281 C 715.039062 95.285156 714.660156 95.277344 714.277344 95.21875 C 713.898438 95.160156 713.519531 95.046875 713.144531 94.882812 C 712.773438 94.71875 712.410156 94.507812 712.0625 94.246094 C 711.710938 93.984375 711.378906 93.679688 711.066406 93.328125 C 710.753906 92.980469 710.464844 92.59375 710.199219 92.167969 C 709.933594 91.746094 709.699219 91.292969 709.492188 90.8125 C 709.285156 90.328125 709.113281 89.828125 708.976562 89.308594 C 708.835938 88.785156 708.734375 88.253906 708.664062 87.714844 C 708.597656 87.171875 708.570312 86.632812 708.578125 86.09375 C 708.585938 85.554688 708.628906 85.023438 708.710938 84.507812 C 708.792969 83.992188 708.910156 83.492188 709.0625 83.019531 C 709.21875 82.542969 709.402344 82.097656 709.621094 81.683594 C 709.839844 81.265625 710.085938 80.890625 710.363281 80.550781 C 710.636719 80.210938 710.9375 79.917969 711.257812 79.667969 C 711.582031 79.417969 711.917969 79.214844 712.277344 79.066406 C 712.632812 78.914062 712.996094 78.8125 713.375 78.769531 C 713.75 78.722656 714.128906 78.726562 714.511719 78.789062 C 714.894531 78.847656 715.269531 78.960938 715.644531 79.121094 C 716.015625 79.285156 716.378906 79.5 716.726562 79.761719 C 717.078125 80.023438 717.410156 80.328125 717.722656 80.675781 C 718.039062 81.027344 718.328125 81.414062 718.589844 81.835938 C 718.855469 82.261719 719.089844 82.714844 719.296875 83.195312 C 719.503906 83.675781 719.675781 84.179688 719.816406 84.699219 C 719.953125 85.222656 720.058594 85.753906 720.125 86.292969 Z M 720.125 86.292969 " fill-opacity="1" fill-rule="nonzero"/><g clip-path="url(#a4e7af95c1)"><path fill="#e6e6e6" d="M 726.535156 32.417969 C 726.601562 32.960938 726.628906 33.5 726.621094 34.039062 C 726.613281 34.578125 726.570312 35.109375 726.488281 35.625 C 726.40625 36.144531 726.289062 36.640625 726.136719 37.113281 C 725.980469 37.589844 725.796875 38.035156 725.578125 38.453125 C 725.359375 38.867188 725.113281 39.242188 724.835938 39.582031 C 724.558594 39.921875 724.261719 40.21875 723.941406 40.46875 C 723.617188 40.71875 723.277344 40.917969 722.921875 41.070312 C 722.566406 41.21875 722.203125 41.320312 721.824219 41.367188 C 721.449219 41.414062 721.070312 41.40625 720.6875 41.347656 C 720.304688 41.285156 719.929688 41.175781 719.554688 41.011719 C 719.179688 40.847656 718.820312 40.632812 718.46875 40.371094 C 718.121094 40.109375 717.789062 39.804688 717.476562 39.457031 C 717.160156 39.105469 716.871094 38.71875 716.609375 38.296875 C 716.34375 37.871094 716.109375 37.417969 715.902344 36.9375 C 715.695312 36.457031 715.523438 35.953125 715.382812 35.433594 C 715.246094 34.910156 715.140625 34.382812 715.074219 33.839844 C 715.007812 33.300781 714.976562 32.757812 714.984375 32.21875 C 714.992188 31.679688 715.039062 31.152344 715.121094 30.632812 C 715.203125 30.117188 715.320312 29.621094 715.472656 29.144531 C 715.625 28.667969 715.8125 28.222656 716.03125 27.808594 C 716.25 27.394531 716.496094 27.015625 716.773438 26.675781 C 717.046875 26.335938 717.347656 26.042969 717.667969 25.792969 C 717.988281 25.542969 718.328125 25.34375 718.683594 25.191406 C 719.039062 25.039062 719.40625 24.941406 719.78125 24.894531 C 720.160156 24.847656 720.539062 24.855469 720.921875 24.914062 C 721.300781 24.972656 721.679688 25.085938 722.054688 25.25 C 722.425781 25.414062 722.789062 25.625 723.136719 25.886719 C 723.488281 26.148438 723.820312 26.453125 724.132812 26.804688 C 724.445312 27.152344 724.734375 27.539062 725 27.964844 C 725.265625 28.386719 725.5 28.839844 725.707031 29.320312 C 725.910156 29.804688 726.085938 30.304688 726.222656 30.828125 C 726.363281 31.347656 726.464844 31.878906 726.535156 32.417969 Z M 726.535156 32.417969 " fill-opacity="1" fill-rule="nonzero"/></g><path fill="#e6e6e6" d="M 640.003906 135.984375 C 640.070312 136.527344 640.101562 137.066406 640.09375 137.605469 C 640.085938 138.144531 640.039062 138.675781 639.957031 139.191406 C 639.875 139.710938 639.757812 140.207031 639.605469 140.679688 C 639.453125 141.15625 639.265625 141.601562 639.046875 142.015625 C 638.828125 142.433594 638.582031 142.808594 638.304688 143.148438 C 638.03125 143.488281 637.730469 143.78125 637.410156 144.03125 C 637.089844 144.28125 636.75 144.484375 636.394531 144.636719 C 636.039062 144.785156 635.671875 144.886719 635.296875 144.933594 C 634.917969 144.976562 634.539062 144.972656 634.160156 144.910156 C 633.777344 144.851562 633.398438 144.742188 633.027344 144.578125 C 632.652344 144.414062 632.289062 144.199219 631.941406 143.9375 C 631.589844 143.675781 631.257812 143.371094 630.945312 143.023438 C 630.632812 142.671875 630.34375 142.285156 630.078125 141.863281 C 629.8125 141.4375 629.578125 140.984375 629.371094 140.503906 C 629.167969 140.023438 628.992188 139.519531 628.855469 139 C 628.714844 138.476562 628.613281 137.945312 628.546875 137.40625 C 628.476562 136.867188 628.449219 136.324219 628.457031 135.785156 C 628.464844 135.246094 628.507812 134.71875 628.589844 134.199219 C 628.671875 133.683594 628.789062 133.1875 628.945312 132.710938 C 629.097656 132.234375 629.28125 131.789062 629.5 131.375 C 629.71875 130.960938 629.964844 130.582031 630.242188 130.242188 C 630.519531 129.902344 630.816406 129.609375 631.136719 129.359375 C 631.460938 129.109375 631.800781 128.910156 632.15625 128.757812 C 632.511719 128.605469 632.878906 128.507812 633.253906 128.460938 C 633.628906 128.414062 634.007812 128.421875 634.390625 128.480469 C 634.773438 128.539062 635.148438 128.652344 635.523438 128.816406 C 635.894531 128.980469 636.257812 129.191406 636.609375 129.453125 C 636.957031 129.714844 637.289062 130.019531 637.601562 130.371094 C 637.917969 130.71875 638.207031 131.105469 638.46875 131.53125 C 638.734375 131.953125 638.96875 132.40625 639.175781 132.886719 C 639.382812 133.371094 639.554688 133.871094 639.695312 134.394531 C 639.832031 134.914062 639.9375 135.445312 640.003906 135.984375 Z M 640.003906 135.984375 " fill-opacity="1" fill-rule="nonzero"/><path fill="#e6e6e6" d="M 683.402344 151.691406 C 683.46875 152.234375 683.5 152.773438 683.492188 153.3125 C 683.484375 153.851562 683.4375 154.378906 683.355469 154.898438 C 683.273438 155.414062 683.15625 155.910156 683.003906 156.386719 C 682.851562 156.863281 682.664062 157.308594 682.445312 157.722656 C 682.226562 158.140625 681.980469 158.515625 681.703125 158.855469 C 681.429688 159.195312 681.128906 159.488281 680.808594 159.738281 C 680.488281 159.988281 680.148438 160.191406 679.792969 160.339844 C 679.4375 160.492188 679.070312 160.589844 678.695312 160.636719 C 678.316406 160.683594 677.9375 160.679688 677.558594 160.617188 C 677.175781 160.558594 676.796875 160.445312 676.425781 160.28125 C 676.050781 160.117188 675.6875 159.90625 675.339844 159.644531 C 674.988281 159.382812 674.65625 159.078125 674.34375 158.726562 C 674.03125 158.378906 673.742188 157.992188 673.476562 157.566406 C 673.210938 157.144531 672.976562 156.691406 672.769531 156.210938 C 672.566406 155.726562 672.390625 155.226562 672.253906 154.707031 C 672.113281 154.183594 672.011719 153.652344 671.945312 153.113281 C 671.875 152.570312 671.847656 152.03125 671.855469 151.492188 C 671.863281 150.953125 671.90625 150.425781 671.988281 149.90625 C 672.070312 149.390625 672.1875 148.894531 672.34375 148.417969 C 672.496094 147.941406 672.679688 147.496094 672.898438 147.082031 C 673.117188 146.664062 673.367188 146.289062 673.640625 145.949219 C 673.917969 145.609375 674.214844 145.316406 674.535156 145.066406 C 674.859375 144.816406 675.199219 144.613281 675.554688 144.464844 C 675.910156 144.3125 676.277344 144.214844 676.652344 144.167969 C 677.027344 144.121094 677.40625 144.125 677.789062 144.1875 C 678.171875 144.246094 678.546875 144.359375 678.921875 144.523438 C 679.296875 144.683594 679.65625 144.898438 680.007812 145.160156 C 680.355469 145.421875 680.6875 145.726562 681.003906 146.078125 C 681.316406 146.425781 681.605469 146.8125 681.871094 147.234375 C 682.132812 147.660156 682.371094 148.113281 682.574219 148.59375 C 682.78125 149.074219 682.953125 149.578125 683.09375 150.097656 C 683.230469 150.621094 683.335938 151.152344 683.402344 151.691406 Z M 683.402344 151.691406 " fill-opacity="1" fill-rule="nonzero"/><path fill="#e6e6e6" d="M 630.707031 196.175781 C 630.773438 196.71875 630.804688 197.257812 630.796875 197.796875 C 630.789062 198.335938 630.746094 198.867188 630.664062 199.382812 C 630.582031 199.898438 630.464844 200.398438 630.308594 200.871094 C 630.15625 201.347656 629.96875 201.792969 629.753906 202.207031 C 629.535156 202.625 629.285156 203 629.011719 203.339844 C 628.734375 203.679688 628.4375 203.972656 628.113281 204.222656 C 627.792969 204.472656 627.453125 204.675781 627.097656 204.828125 C 626.742188 204.976562 626.375 205.078125 626 205.125 C 625.625 205.167969 625.246094 205.164062 624.863281 205.101562 C 624.480469 205.042969 624.101562 204.933594 623.730469 204.769531 C 623.355469 204.605469 622.996094 204.390625 622.644531 204.128906 C 622.292969 203.867188 621.964844 203.5625 621.648438 203.214844 C 621.335938 202.863281 621.046875 202.476562 620.78125 202.054688 C 620.519531 201.628906 620.28125 201.175781 620.078125 200.695312 C 619.871094 200.214844 619.699219 199.710938 619.558594 199.191406 C 619.417969 198.667969 619.316406 198.136719 619.25 197.597656 C 619.183594 197.058594 619.152344 196.515625 619.160156 195.976562 C 619.167969 195.4375 619.214844 194.910156 619.296875 194.390625 C 619.375 193.875 619.496094 193.378906 619.648438 192.902344 C 619.800781 192.425781 619.988281 191.980469 620.207031 191.566406 C 620.425781 191.152344 620.671875 190.773438 620.945312 190.433594 C 621.222656 190.09375 621.519531 189.800781 621.84375 189.550781 C 622.164062 189.300781 622.503906 189.101562 622.859375 188.949219 C 623.214844 188.796875 623.582031 188.699219 623.957031 188.652344 C 624.332031 188.605469 624.710938 188.613281 625.09375 188.671875 C 625.476562 188.730469 625.855469 188.84375 626.226562 189.007812 C 626.601562 189.171875 626.960938 189.382812 627.3125 189.644531 C 627.664062 189.90625 627.996094 190.210938 628.308594 190.5625 C 628.621094 190.910156 628.910156 191.296875 629.175781 191.722656 C 629.441406 192.144531 629.675781 192.597656 629.882812 193.078125 C 630.085938 193.5625 630.257812 194.0625 630.398438 194.585938 C 630.539062 195.105469 630.640625 195.636719 630.707031 196.175781 Z M 630.707031 196.175781 " fill-opacity="1" fill-rule="nonzero"/><path fill="#3f3d56" d="M 127.546875 539.253906 C 113.5 539.253906 104.371094 535.761719 100.328125 528.828125 C 92.359375 515.148438 105.707031 491.148438 140 457.488281 L 142.878906 460.425781 C 111.027344 491.6875 97.175781 515.246094 103.882812 526.757812 C 108.125 534.039062 120.753906 536.648438 140.410156 534.300781 C 159.921875 531.972656 185.78125 525.03125 217.265625 513.667969 C 282.089844 490.277344 363.414062 450.820312 446.265625 402.566406 C 529.109375 354.316406 603.554688 303.046875 655.882812 258.203125 C 665.933594 249.589844 675.054688 241.300781 682.996094 233.574219 C 693.433594 223.660156 703.015625 212.980469 711.746094 201.535156 C 723.484375 185.601562 727.445312 173.328125 723.203125 166.046875 C 716.117188 153.882812 686.347656 155.027344 639.375 169.273438 L 638.183594 165.335938 C 688.578125 150.058594 718.378906 149.597656 726.757812 163.976562 C 731.960938 172.910156 728.023438 186.367188 715.058594 203.972656 C 706.195312 215.601562 696.464844 226.449219 685.863281 236.519531 C 677.863281 244.308594 668.675781 252.65625 658.558594 261.328125 C 606.046875 306.324219 531.390625 357.746094 448.335938 406.121094 C 365.277344 454.496094 283.710938 494.0625 218.664062 517.535156 C 186.882812 529.003906 160.71875 536.019531 140.894531 538.382812 C 136.464844 538.9375 132.011719 539.226562 127.546875 539.253906 Z M 127.546875 539.253906 " fill-opacity="1" fill-rule="nonzero"/></svg>